<svg width="1194" height="377" viewBox="0 0 1194 377" fill="none" xmlns="http://www.w3.org/2000/svg">
<path fill-rule="evenodd" clip-rule="evenodd" d="M63.7432 179.056H117.353V354.32L43.1239 344.011V339.887C39.8248 339.887 39 337.138 39 335.763V325.453C39 322.154 41.7492 321.33 43.1239 321.33V284.215C43.8112 260.846 45.5982 210.604 47.2477 196.583C48.8973 182.562 58.932 179.056 63.7432 179.056ZM117.353 179.056H847.277C850.713 179.744 858.205 183.18 860.679 191.428C863.772 201.737 872.02 288.339 868.927 309.989C870.645 311.02 874.082 315.144 874.082 323.391V346.073C873.738 348.478 870.371 353.496 859.648 354.32C848.926 355.145 846.933 354.664 847.277 354.32H117.353V179.056Z" fill="#D9D9D9"/>
<path d="M239.007 334.055V354.32H317.361V334.055C317.361 309.863 300.419 303.12 291.949 302.772H266.537C244.513 302.772 239.007 323.627 239.007 334.055Z" fill="#25303B"/>
<path d="M645.208 334.055V354.32H723.561V334.055C723.561 309.863 706.62 303.12 698.149 302.772H672.738C650.714 302.772 645.208 323.627 645.208 334.055Z" fill="#25303B"/>
<path fill-rule="evenodd" clip-rule="evenodd" d="M715.313 179.095C694.912 149.768 664.841 143.499 652.356 144.03L652.356 144.03H367.053V144.03H360.678C352.974 147.218 340.914 157.419 354.302 172.72V179.095H367.053L367.053 179.095L652.356 179.095H715.313Z" fill="#D2D2D2"/>
<circle cx="278.184" cy="341.949" r="35.0528" fill="#0F2431"/>
<circle cx="278.184" cy="341.949" r="20.6193" fill="#78838A"/>
<circle cx="278.184" cy="341.949" r="15.4645" stroke="#9FAAB1" stroke-width="2.06193"/>
<circle cx="684.385" cy="341.945" r="35.0528" fill="#0F2431"/>
<circle cx="684.385" cy="341.945" r="20.6193" fill="#78838A"/>
<circle cx="684.385" cy="341.945" r="15.4645" stroke="#9FAAB1" stroke-width="2.06193"/>
<path fill-rule="evenodd" clip-rule="evenodd" d="M67.867 187.304C65.5895 187.304 63.7432 189.15 63.7432 191.428V286.277C63.7432 288.554 65.5895 290.401 67.867 290.401H337.98V187.304H67.867ZM750.366 187.304L434.891 187.304H337.98V222.357H434.891V290.401H750.366V187.304ZM843.153 187.304H750.366V222.357H847.277V191.428C847.277 189.15 845.431 187.304 843.153 187.304Z" fill="#0F2431"/>
<rect x="71.9907" y="212.047" width="41.2386" height="37.1148" rx="6.18579" fill="#668979"/>
<rect x="121.477" y="212.047" width="94.8488" height="59.796" rx="6.18579" fill="#668979"/>
<rect x="224.574" y="212.047" width="107.22" height="59.796" rx="6.18579" fill="#668979"/>
<rect x="443.139" y="214.109" width="92.7869" height="65.9818" rx="6.18579" fill="#668979"/>
<rect x="546.235" y="214.109" width="92.7869" height="65.9818" rx="6.18579" fill="#668979"/>
<rect x="649.332" y="214.109" width="92.7869" height="65.9818" rx="6.18579" fill="#668979"/>
<path fill-rule="evenodd" clip-rule="evenodd" d="M853.463 181.781C856.38 183.747 859.304 186.845 860.679 191.428C863.772 201.738 872.02 288.339 868.927 309.989C863.772 307.583 853.463 300.298 853.463 290.401V181.781Z" fill="#0F2431"/>
<rect x="750.366" y="222.357" width="96.9108" height="131.964" fill="#0F2431"/>
<rect x="756.552" y="232.666" width="35.0528" height="113.406" rx="6.18579" fill="#668979"/>
<rect x="803.977" y="232.666" width="35.0528" height="113.406" rx="6.18579" fill="#668979"/>
<path d="M756.552 284.215H764.799C768.216 284.215 770.985 286.984 770.985 290.401C770.985 293.817 768.216 296.586 764.799 296.586H756.552V284.215Z" fill="#0F2431"/>
<path d="M756.552 284.215H764.799C768.216 284.215 770.985 286.984 770.985 290.401C770.985 293.817 768.216 296.586 764.799 296.586H756.552V284.215Z" fill="#0F2431"/>
<path d="M756.552 284.215H764.799C768.216 284.215 770.985 286.984 770.985 290.401C770.985 293.817 768.216 296.586 764.799 296.586H756.552V284.215Z" fill="#0F2431"/>
<path d="M839.029 284.215H830.782C827.365 284.215 824.596 286.984 824.596 290.401C824.596 293.817 827.365 296.586 830.782 296.586H839.029V284.215Z" fill="#0F2431"/>
<path d="M839.029 284.215H830.782C827.365 284.215 824.596 286.984 824.596 290.401C824.596 293.817 827.365 296.586 830.782 296.586H839.029V284.215Z" fill="#0F2431"/>
<path d="M839.029 284.215H830.782C827.365 284.215 824.596 286.984 824.596 290.401C824.596 293.817 827.365 296.586 830.782 296.586H839.029V284.215Z" fill="#0F2431"/>
<rect x="337.98" y="222.357" width="96.9108" height="131.964" fill="#0F2431"/>
<rect x="344.166" y="232.666" width="35.0528" height="113.406" rx="6.18579" fill="#668979"/>
<rect x="391.59" y="232.666" width="35.0528" height="113.406" rx="6.18579" fill="#668979"/>
<path d="M344.166 284.215H352.413C355.83 284.215 358.599 286.984 358.599 290.401C358.599 293.817 355.83 296.586 352.413 296.586H344.166V284.215Z" fill="#0F2431"/>
<path d="M344.166 284.215H352.413C355.83 284.215 358.599 286.984 358.599 290.401C358.599 293.817 355.83 296.586 352.413 296.586H344.166V284.215Z" fill="#0F2431"/>
<path d="M344.166 284.215H352.413C355.83 284.215 358.599 286.984 358.599 290.401C358.599 293.817 355.83 296.586 352.413 296.586H344.166V284.215Z" fill="#0F2431"/>
<path d="M426.643 284.215H418.395C414.979 284.215 412.21 286.984 412.21 290.401C412.21 293.817 414.979 296.586 418.395 296.586H426.643V284.215Z" fill="#0F2431"/>
<path d="M426.643 284.215H418.395C414.979 284.215 412.21 286.984 412.21 290.401C412.21 293.817 414.979 296.586 418.395 296.586H426.643V284.215Z" fill="#0F2431"/>
<path d="M426.643 284.215H418.395C414.979 284.215 412.21 286.984 412.21 290.401C412.21 293.817 414.979 296.586 418.395 296.586H426.643V284.215Z" fill="#0F2431"/>
<path d="M898.826 223.388C897.176 205.243 870.646 200.019 857.587 199.676V207.923C879.856 214.521 885.423 228.543 885.423 234.728C885.079 238.852 885.835 246.894 891.609 246.069C897.382 245.244 898.826 238.165 898.826 234.728V223.388Z" fill="#1A2D3B"/>
<g filter="url(#filter0_d_1142_195)">
<rect width="68" height="19" rx="3" transform="matrix(-0.707107 0.707107 0.707107 0.707107 340.688 61.4802)" fill="#D1EEE1"/>
<path d="M305.306 51.1175C304.112 50.1723 302.399 50.2716 301.323 51.3483L283.887 68.7836C282.81 69.8604 282.711 71.5731 283.656 72.7671L306.777 101.972C307.891 103.379 309.982 103.5 311.251 102.231L334.77 78.7117C336.039 77.4431 335.918 75.3519 334.511 74.2383L305.306 51.1175Z" fill="#D9D9D9"/>
<ellipse cx="60.5" cy="34" rx="60.5" ry="34" transform="matrix(-0.707107 0.707107 0.707107 0.707107 364.73 47.3381)" fill="#22A569"/>
<rect width="121" height="188" transform="matrix(-0.707107 0.707107 0.707107 0.707107 392.308 74.9153)" fill="#22A569"/>
<rect width="134" height="23" rx="3" transform="matrix(-0.707107 0.707107 0.707107 0.707107 385.943 60.066)" fill="#D1EEE1"/>
<rect width="134" height="23" rx="3" transform="matrix(-0.707107 0.707107 0.707107 0.707107 523.83 197.952)" fill="#D1EEE1"/>
</g>
<path d="M298.262 91.1787L284.473 73.8546L119.364 114.513L241.693 249.571L298.262 91.1787Z" fill="url(#paint0_linear_1142_195)"/>
<defs>
<filter id="filter0_d_1142_195" x="233.009" y="0.469635" width="355.842" height="357.255" filterUnits="userSpaceOnUse" color-interpolation-filters="sRGB">
<feFlood flood-opacity="0" result="BackgroundImageFix"/>
<feColorMatrix in="SourceAlpha" type="matrix" values="0 0 0 0 0 0 0 0 0 0 0 0 0 0 0 0 0 0 127 0" result="hardAlpha"/>
<feOffset/>
<feGaussianBlur stdDeviation="25"/>
<feComposite in2="hardAlpha" operator="out"/>
<feColorMatrix type="matrix" values="0 0 0 0 1 0 0 0 0 1 0 0 0 0 1 0 0 0 0.2 0"/>
<feBlend mode="normal" in2="BackgroundImageFix" result="effect1_dropShadow_1142_195"/>
<feBlend mode="normal" in="SourceGraphic" in2="effect1_dropShadow_1142_195" result="shape"/>
</filter>
<linearGradient id="paint0_linear_1142_195" x1="289.423" y1="85.1683" x2="176.017" y2="189.92" gradientUnits="userSpaceOnUse">
<stop stop-color="#22A569"/>
<stop offset="1" stop-color="#22A569" stop-opacity="0"/>
</linearGradient>
</defs>
</svg>
