<svg width="1194" height="300" viewBox="0 0 1194 300" fill="none" xmlns="http://www.w3.org/2000/svg">
<g clip-path="url(#clip0_1142_194)">
<path d="M829.052 64.9482C845.373 136.76 883.455 176.021 900.456 186.675L883.454 284.601C849.258 270.641 812.977 249.484 788.929 217.957C767.168 189.427 771.959 161.862 793.01 146.553C807.97 135.672 819.304 109.831 799.81 91.4698C790.062 80.8158 763.802 72.3694 729.086 105.751C711.405 122.751 699.386 154.276 694.404 146.553C680.803 125.472 692.59 105.75 705.284 91.4698C739.74 52.7075 812.731 -6.86395 829.052 64.9482Z" fill="#AF815A"/>
<path d="M900.5 183L878.5 289.5L1204 432L1212 271.5L900.5 183Z" fill="#C8DED4"/>
<rect x="671.899" width="183.611" height="118.327" rx="6" transform="rotate(21.5166 671.899 0)" fill="#22A569"/>
<rect x="668.857" y="48.5072" width="38.0822" height="27.2016" rx="5" transform="rotate(21.5166 668.857 48.5072)" fill="#E6E6E6"/>
<path d="M724.326 138.393L799.81 230.198L835.172 198.236C829.279 177.381 803.346 130.912 746.767 111.871C690.188 92.8299 708.231 121.618 724.326 138.393Z" fill="#AF815A"/>
<path d="M448 59.5C412.19 64.7856 419.5 25.4998 372 42.88C324.5 60.2603 269.5 67.8801 269.5 67.8801V170.88C315.9 175.28 357 183.948 369.5 185.5C419.167 191.667 454.3 195.3 503.5 182.5C552.7 169.7 583.5 39.5 448 59.5Z" fill="#DFBAAF"/>
<path d="M272.5 176L270 63.5L-14 39V192L272.5 176Z" fill="#D9D9D9"/>
<rect x="387.5" y="181" width="148" height="201.015" rx="19.5014" transform="rotate(-90 387.5 181)" fill="#262626"/>
<rect x="401.858" y="170.219" width="127.417" height="41.9701" rx="4.50033" transform="rotate(-90 401.858 170.219)" fill="#5A5A5A"/>
<rect x="457.082" y="170.219" width="38.2252" height="23.194" rx="1.50011" transform="rotate(-90 457.082 170.219)" fill="#424242"/>
<rect x="486.903" y="170.219" width="38.2252" height="23.194" rx="1.50011" transform="rotate(-90 486.903 170.219)" fill="#424242"/>
<rect x="516.724" y="170.219" width="38.2252" height="23.194" rx="1.50011" transform="rotate(-90 516.724 170.219)" fill="#424242"/>
<rect x="546.545" y="170.219" width="38.2252" height="23.194" rx="1.50011" transform="rotate(-90 546.545 170.219)" fill="#22A569"/>
<rect x="457.082" y="126.113" width="38.2252" height="23.194" rx="1.50011" transform="rotate(-90 457.082 126.113)" fill="#424242"/>
<rect x="486.903" y="126.113" width="38.2252" height="23.194" rx="1.50011" transform="rotate(-90 486.903 126.113)" fill="#424242"/>
<rect x="516.724" y="126.113" width="38.2252" height="23.194" rx="1.50011" transform="rotate(-90 516.724 126.113)" fill="#424242"/>
<rect x="546.545" y="126.113" width="38.2252" height="23.194" rx="1.50011" transform="rotate(-90 546.545 126.113)" fill="#424242"/>
<rect x="457.082" y="82.0066" width="38.2252" height="23.194" rx="1.50011" transform="rotate(-90 457.082 82.0066)" fill="#424242"/>
<rect x="486.903" y="82.0066" width="38.2252" height="23.194" rx="1.50011" transform="rotate(-90 486.903 82.0066)" fill="#424242"/>
<rect x="516.724" y="82.0066" width="38.2252" height="23.194" rx="1.50011" transform="rotate(-90 516.724 82.0066)" fill="#424242"/>
<rect x="546.545" y="82.0066" width="38.2252" height="23.194" rx="1.50011" transform="rotate(-90 546.545 82.0066)" fill="#F4C456"/>
</g>
<defs>
<clipPath id="clip0_1142_194">
<rect width="1194" height="300" fill="white"/>
</clipPath>
</defs>
</svg>
