<svg width="250" height="362" viewBox="0 0 250 362" fill="none" xmlns="http://www.w3.org/2000/svg">
<ellipse cx="119.751" cy="257.192" rx="104.102" ry="85.7307" fill="#CFF2E2"/>
<path d="M0.680402 236.1L21.0925 231.337L26.5357 289.851L0 284.408L0.680402 236.1Z" fill="#CFF2E2"/>
<path d="M56.4737 361.974L50.3501 318.428L190.513 311.624L183.709 361.974H145.606L142.204 338.84H97.9783L95.2566 361.974H56.4737Z" fill="#CFF2E2"/>
<path d="M53.7515 165.338L59.1947 189.832C77.3387 195.956 109.953 202.76 95.256 180.987C80.5593 159.214 61.4627 161.482 53.7515 165.338Z" fill="#CFF2E2"/>
<path d="M220.451 245.625C240.181 234.058 236.356 215.581 227.934 219.09C219.769 222.492 220.451 244.264 234.739 234.058C246.17 225.894 247.667 218.409 246.986 215.688" stroke="#7ACBA6" stroke-width="4.08241"/>
<circle cx="123.153" cy="126.555" r="32.6593" fill="#FBBC04"/>
<circle cx="131.318" cy="126.555" r="32.6593" fill="#FDD835"/>
<g opacity="0.5">
<circle cx="82.3287" cy="32.6593" r="32.6593" fill="#FBBC04"/>
<circle cx="90.4933" cy="32.6593" r="32.6593" fill="#FDD835"/>
</g>
<rect x="94.5762" y="179.626" width="57.1538" height="6.80402" rx="3.40201" fill="#A4D5BE"/>
</svg>
