<svg width="1080" height="1920" viewBox="0 0 1080 1920" fill="none" xmlns="http://www.w3.org/2000/svg">
<rect width="1080" height="1920" fill="#B6FE0D"/>
<path d="M540.501 670L564.376 831.933L634.939 684.23L610.008 846.004L720.986 725.654L649.464 872.895L790.996 790.592L679.237 910.217L838.749 873.274L696.683 954.654L860 966.353L700.25 1002.26L852.863 1061.56L689.625 1048.8L817.971 1150.43L665.75 1090.14L758.425 1225.08L630.743 1122.61L679.515 1278.86L587.72 1143.32L588.254 1307L540.501 1150.43L492.747 1307L493.281 1143.32L401.486 1278.86L450.258 1122.61L322.576 1225.08L415.253 1090.14L263.029 1150.43L391.376 1048.8L228.137 1061.56L380.75 1002.26L221 966.353L384.319 954.654L242.252 873.274L401.765 910.217L290.005 790.592L431.537 872.895L360.015 725.654L470.994 846.004L446.062 684.23L516.625 831.933L540.501 670Z" fill="#E68A0B"/>
<line y1="1612.5" x2="1080" y2="1612.5" stroke="black" stroke-width="3"/>
<line y1="1657.5" x2="1080" y2="1657.5" stroke="black" stroke-width="3"/>
<line y1="1703.5" x2="1080" y2="1703.5" stroke="black" stroke-width="3"/>
<line y1="1749.5" x2="1080" y2="1749.5" stroke="black" stroke-width="3"/>
<path fill-rule="evenodd" clip-rule="evenodd" d="M853 1554C853 1554 713.09 1749 540.5 1749C367.912 1749 228 1554 228 1554C228 1554 367.912 1359 540.5 1359C713.09 1359 853 1554 853 1554ZM683.127 1554C683.127 1632.36 619.272 1695.88 540.5 1695.88C461.728 1695.88 397.872 1632.36 397.872 1554C397.872 1475.64 461.728 1412.12 540.5 1412.12C619.272 1412.12 683.127 1475.64 683.127 1554ZM540.5 1635.3C585.639 1635.3 622.231 1598.9 622.231 1554C622.231 1509.1 585.639 1472.7 540.5 1472.7C495.361 1472.7 458.769 1509.1 458.769 1554C458.769 1598.9 495.361 1635.3 540.5 1635.3Z" fill="#E68A0B"/>
</svg>
