<svg width="1080" height="1920" viewBox="0 0 1080 1920" fill="none" xmlns="http://www.w3.org/2000/svg">
<g clip-path="url(#clip0_409_248)">
<rect width="1080" height="1920" fill="#FC198F"/>
<path d="M501.526 943.877C501.663 942.708 503.337 942.708 503.474 943.877L504.622 953.688C506.105 966.357 515.959 976.345 528.456 977.848L538.135 979.013C539.288 979.151 539.288 980.849 538.135 980.987L528.456 982.152C515.959 983.655 506.105 993.643 504.622 1006.31L503.474 1016.12C503.337 1017.29 501.663 1017.29 501.526 1016.12L500.378 1006.31C498.895 993.643 489.041 983.655 476.544 982.152L466.865 980.987C465.712 980.849 465.712 979.151 466.865 979.013L476.544 977.848C489.041 976.345 498.895 966.357 500.378 953.688L501.526 943.877Z" fill="#B6FE0D"/>
<path d="M169.818 1253.42C170.195 1250.19 174.805 1250.19 175.182 1253.42L178.344 1280.46C182.427 1315.39 209.558 1342.92 243.968 1347.07L270.617 1350.28C273.794 1350.66 273.794 1355.34 270.617 1355.72L243.968 1358.93C209.558 1363.08 182.427 1390.61 178.344 1425.53L175.182 1452.58C174.805 1455.81 170.195 1455.81 169.818 1452.58L166.656 1425.53C162.573 1390.61 135.443 1363.08 101.031 1358.93L74.3825 1355.72C71.2058 1355.34 71.2058 1350.66 74.3825 1350.28L101.031 1347.07C135.443 1342.92 162.573 1315.39 166.656 1280.46L169.818 1253.42Z" fill="#B6FE0D"/>
<path d="M469.87 1181.17C470.521 1175.61 478.479 1175.61 479.13 1181.17L484.589 1227.84C491.638 1288.1 538.475 1335.62 597.881 1342.77L643.886 1348.3C649.371 1348.96 649.371 1357.04 643.886 1357.7L597.881 1363.23C538.475 1370.38 491.638 1417.9 484.589 1478.16L479.13 1524.83C478.479 1530.39 470.521 1530.39 469.87 1524.83L464.411 1478.16C457.362 1417.9 410.525 1370.38 351.119 1363.23L305.113 1357.7C299.629 1357.04 299.629 1348.96 305.113 1348.3L351.119 1342.77C410.525 1335.62 457.362 1288.1 464.411 1227.84L469.87 1181.17Z" fill="#CCFE56"/>
<path d="M917.382 1106.97C918.313 1099.01 929.687 1099.01 930.618 1106.97L938.421 1173.8C948.497 1260.08 1015.45 1328.11 1100.36 1338.35L1166.12 1346.27C1173.96 1347.22 1173.96 1358.78 1166.12 1359.73L1100.36 1367.65C1015.45 1377.89 948.497 1445.92 938.421 1532.2L930.618 1599.03C929.687 1606.99 918.313 1606.99 917.382 1599.03L909.579 1532.2C899.504 1445.92 832.555 1377.89 747.64 1367.65L681.879 1359.73C674.04 1358.78 674.04 1347.22 681.879 1346.27L747.64 1338.35C832.555 1328.11 899.504 1260.08 909.579 1173.8L917.382 1106.97Z" fill="#E2FF9E"/>
<line y1="1612.5" x2="1080" y2="1612.5" stroke="#FEBADD" stroke-width="3"/>
<line y1="1657.5" x2="1080" y2="1657.5" stroke="#FEBADD" stroke-width="3"/>
<line y1="1703.5" x2="1080" y2="1703.5" stroke="#FEBADD" stroke-width="3"/>
<line y1="1749.5" x2="1080" y2="1749.5" stroke="#FEBADD" stroke-width="3"/>
</g>
<defs>
<clipPath id="clip0_409_248">
<rect width="1080" height="1920" fill="white"/>
</clipPath>
</defs>
</svg>
