<svg width="1080" height="1920" viewBox="0 0 1080 1920" fill="none" xmlns="http://www.w3.org/2000/svg">
<rect width="1080" height="1920" fill="#B6FE0D"/>
<path d="M540.501 534L567.365 716.27L646.763 550.017L618.71 732.108L743.582 596.643L663.106 762.376L822.357 669.737L696.606 804.385L876.089 762.803L716.237 854.403L900 867.571L720.25 907.983L891.97 974.734L708.295 960.37L852.709 1074.77L681.43 1006.9L785.708 1158.79L642.041 1043.45L696.919 1219.33L593.632 1066.76L594.232 1251L540.501 1074.77L486.769 1251L487.37 1066.76L384.082 1219.33L438.96 1043.45L295.292 1158.79L399.572 1006.9L228.291 1074.77L372.707 960.37L189.031 974.734L360.75 907.983L181 867.571L364.766 854.403L204.912 762.803L384.396 804.385L258.644 669.737L417.896 762.376L337.419 596.643L462.292 732.108L434.239 550.017L513.636 716.27L540.501 534Z" fill="#E68A0B"/>
<line y1="1612.5" x2="1080" y2="1612.5" stroke="black" stroke-width="3"/>
<line y1="1657.5" x2="1080" y2="1657.5" stroke="black" stroke-width="3"/>
<line y1="1703.5" x2="1080" y2="1703.5" stroke="black" stroke-width="3"/>
<line y1="1749.5" x2="1080" y2="1749.5" stroke="black" stroke-width="3"/>
<path fill-rule="evenodd" clip-rule="evenodd" d="M892 1529.5C892 1529.5 734.629 1749 540.5 1749C346.373 1749 189 1529.5 189 1529.5C189 1529.5 346.373 1310 540.5 1310C734.629 1310 892 1529.5 892 1529.5ZM700.927 1529.5C700.927 1617.7 629.103 1689.2 540.5 1689.2C451.897 1689.2 380.072 1617.7 380.072 1529.5C380.072 1441.3 451.897 1369.8 540.5 1369.8C629.103 1369.8 700.927 1441.3 700.927 1529.5ZM540.5 1621.01C591.273 1621.01 632.431 1580.04 632.431 1529.5C632.431 1478.96 591.273 1437.99 540.5 1437.99C489.727 1437.99 448.569 1478.96 448.569 1529.5C448.569 1580.04 489.727 1621.01 540.5 1621.01Z" fill="#E68A0B"/>
</svg>
