<svg width="1920" height="1080" viewBox="0 0 1920 1080" fill="none" xmlns="http://www.w3.org/2000/svg">
<g clip-path="url(#clip0_417_3)">
<rect width="1920" height="1080" fill="#B6FE0D"/>
<path fill-rule="evenodd" clip-rule="evenodd" d="M684.984 0L706.774 23.5315L703.133 0H1216.87L1213.23 23.5315L1235.02 0H1416.04L1356.98 121.09L1566.09 0H1706.08L1465.45 256.492L1920 151.66V194.673L1529.01 417.708L1920 445.598V505.807L1542 590.405L1920 736.675V791.697L1503.29 759.255L1910.03 1080H1849.23L1416.31 909.238L1534.08 1080H1355.05L1288.77 1027.03L1305.38 1080H614.627L631.231 1027.03L564.95 1080H385.926L503.7 909.238L70.7742 1080H9.97078L416.713 759.255L0 791.697V736.676L378.001 590.405L0 505.807V445.599L391.002 417.708L0 194.67V151.659L454.561 256.492L213.924 0H353.918L563.028 121.09L503.961 0H684.984Z" fill="#0B21E6"/>
<path d="M627.839 243H675.839V235H627.839V243ZM670.139 207V277H678.639V207H670.139ZM623.139 207V277H631.639V207H623.139ZM694.123 212C694.123 213.467 694.656 214.767 695.723 215.9C696.856 216.967 698.156 217.5 699.623 217.5C701.156 217.5 702.456 216.967 703.523 215.9C704.59 214.767 705.123 213.467 705.123 212C705.123 210.467 704.59 209.167 703.523 208.1C702.456 207.033 701.156 206.5 699.623 206.5C698.156 206.5 696.856 207.033 695.723 208.1C694.656 209.167 694.123 210.467 694.123 212ZM695.623 231V277H703.623V231H695.623ZM717 280C717 283.933 717.966 287.4 719.9 290.4C721.833 293.467 724.5 295.833 727.9 297.5C731.366 299.167 735.333 300 739.8 300C743.666 300 747.333 299.1 750.8 297.3C754.266 295.5 757.1 292.8 759.3 289.2C761.5 285.667 762.6 281.267 762.6 276V231H754.6V276C754.6 279.867 753.833 283 752.3 285.4C750.833 287.867 748.966 289.667 746.7 290.8C744.433 291.933 742.133 292.5 739.8 292.5C736.8 292.5 734.2 291.9 732 290.7C729.8 289.567 728.1 288.033 726.9 286.1C725.7 284.233 725.1 282.2 725.1 280H717ZM716.1 254C716.1 258.933 717.133 263.2 719.2 266.8C721.266 270.4 724.033 273.167 727.5 275.1C730.966 277.033 734.766 278 738.9 278C742.766 278 746.133 277.033 749 275.1C751.866 273.167 754.1 270.4 755.7 266.8C757.366 263.2 758.2 258.933 758.2 254C758.2 249 757.366 244.733 755.7 241.2C754.1 237.6 751.866 234.833 749 232.9C746.133 230.967 742.766 230 738.9 230C734.766 230 730.966 230.967 727.5 232.9C724.033 234.833 721.266 237.6 719.2 241.2C717.133 244.733 716.1 249 716.1 254ZM724.2 254C724.2 250.467 724.9 247.467 726.3 245C727.766 242.533 729.7 240.667 732.1 239.4C734.5 238.133 737.1 237.5 739.9 237.5C741.633 237.5 743.366 237.867 745.1 238.6C746.833 239.333 748.4 240.4 749.8 241.8C751.266 243.2 752.433 244.933 753.3 247C754.166 249 754.6 251.333 754.6 254C754.6 257.533 753.866 260.533 752.4 263C750.933 265.467 749.066 267.333 746.8 268.6C744.533 269.867 742.233 270.5 739.9 270.5C737.1 270.5 734.5 269.867 732.1 268.6C729.7 267.333 727.766 265.467 726.3 263C724.9 260.533 724.2 257.533 724.2 254ZM785.131 199H777.131V277H785.131V199ZM806.631 249V277H814.631V248C814.631 244 813.964 240.667 812.631 238C811.364 235.333 809.531 233.333 807.131 232C804.798 230.667 802.031 230 798.831 230C795.631 230 792.798 230.833 790.331 232.5C787.931 234.167 786.031 236.433 784.631 239.3C783.231 242.1 782.531 245.333 782.531 249H785.131C785.131 246.8 785.598 244.833 786.531 243.1C787.531 241.367 788.898 240 790.631 239C792.431 238 794.498 237.5 796.831 237.5C800.098 237.5 802.531 238.467 804.131 240.4C805.798 242.333 806.631 245.2 806.631 249ZM829.67 199V277H837.67V199H829.67ZM852.717 212C852.717 213.467 853.25 214.767 854.317 215.9C855.45 216.967 856.75 217.5 858.217 217.5C859.75 217.5 861.05 216.967 862.117 215.9C863.183 214.767 863.717 213.467 863.717 212C863.717 210.467 863.183 209.167 862.117 208.1C861.05 207.033 859.75 206.5 858.217 206.5C856.75 206.5 855.45 207.033 854.317 208.1C853.25 209.167 852.717 210.467 852.717 212ZM854.217 231V277H862.217V231H854.217ZM875.593 280C875.593 283.933 876.56 287.4 878.493 290.4C880.427 293.467 883.093 295.833 886.493 297.5C889.96 299.167 893.927 300 898.393 300C902.26 300 905.927 299.1 909.393 297.3C912.86 295.5 915.693 292.8 917.893 289.2C920.093 285.667 921.193 281.267 921.193 276V231H913.193V276C913.193 279.867 912.427 283 910.893 285.4C909.427 287.867 907.56 289.667 905.293 290.8C903.027 291.933 900.727 292.5 898.393 292.5C895.393 292.5 892.793 291.9 890.593 290.7C888.393 289.567 886.693 288.033 885.493 286.1C884.293 284.233 883.693 282.2 883.693 280H875.593ZM874.693 254C874.693 258.933 875.727 263.2 877.793 266.8C879.86 270.4 882.627 273.167 886.093 275.1C889.56 277.033 893.36 278 897.493 278C901.36 278 904.727 277.033 907.593 275.1C910.46 273.167 912.693 270.4 914.293 266.8C915.96 263.2 916.793 258.933 916.793 254C916.793 249 915.96 244.733 914.293 241.2C912.693 237.6 910.46 234.833 907.593 232.9C904.727 230.967 901.36 230 897.493 230C893.36 230 889.56 230.967 886.093 232.9C882.627 234.833 879.86 237.6 877.793 241.2C875.727 244.733 874.693 249 874.693 254ZM882.793 254C882.793 250.467 883.493 247.467 884.893 245C886.36 242.533 888.293 240.667 890.693 239.4C893.093 238.133 895.693 237.5 898.493 237.5C900.227 237.5 901.96 237.867 903.693 238.6C905.427 239.333 906.993 240.4 908.393 241.8C909.86 243.2 911.027 244.933 911.893 247C912.76 249 913.193 251.333 913.193 254C913.193 257.533 912.46 260.533 910.993 263C909.527 265.467 907.66 267.333 905.393 268.6C903.127 269.867 900.827 270.5 898.493 270.5C895.693 270.5 893.093 269.867 890.693 268.6C888.293 267.333 886.36 265.467 884.893 263C883.493 260.533 882.793 257.533 882.793 254ZM943.725 199H935.725V277H943.725V199ZM965.225 249V277H973.225V248C973.225 244 972.558 240.667 971.225 238C969.958 235.333 968.125 233.333 965.725 232C963.391 230.667 960.625 230 957.425 230C954.225 230 951.391 230.833 948.925 232.5C946.525 234.167 944.625 236.433 943.225 239.3C941.825 242.1 941.125 245.333 941.125 249H943.725C943.725 246.8 944.191 244.833 945.125 243.1C946.125 241.367 947.491 240 949.225 239C951.025 238 953.091 237.5 955.425 237.5C958.691 237.5 961.125 238.467 962.725 240.4C964.391 242.333 965.225 245.2 965.225 249ZM981.264 231V238.5H1004.26V231H981.264ZM988.764 215V277H996.764V215H988.764ZM1014.19 262.9L1007.89 266.8C1008.75 268.6 1010.02 270.367 1011.69 272.1C1013.42 273.833 1015.52 275.267 1017.99 276.4C1020.45 277.467 1023.22 278 1026.29 278C1031.02 278 1034.82 276.667 1037.69 274C1040.62 271.333 1042.09 268 1042.09 264C1042.09 261.267 1041.42 259.033 1040.09 257.3C1038.82 255.567 1037.09 254.1 1034.89 252.9C1032.69 251.633 1030.25 250.467 1027.59 249.4C1025.99 248.733 1024.45 248.033 1022.99 247.3C1021.52 246.567 1020.32 245.733 1019.39 244.8C1018.45 243.867 1017.99 242.8 1017.99 241.6C1017.99 240.067 1018.59 238.933 1019.79 238.2C1020.99 237.467 1022.42 237.1 1024.09 237.1C1026.49 237.1 1028.62 237.667 1030.49 238.8C1032.42 239.933 1034.02 241.367 1035.29 243.1L1041.69 239C1040.75 237.267 1039.45 235.733 1037.79 234.4C1036.12 233.067 1034.19 232 1031.99 231.2C1029.85 230.4 1027.55 230 1025.09 230C1022.62 230 1020.22 230.433 1017.89 231.3C1015.62 232.167 1013.75 233.5 1012.29 235.3C1010.89 237.1 1010.19 239.367 1010.19 242.1C1010.19 244.767 1010.85 247 1012.19 248.8C1013.59 250.533 1015.29 251.967 1017.29 253.1C1019.35 254.167 1021.39 255.1 1023.39 255.9C1025.19 256.567 1026.89 257.3 1028.49 258.1C1030.09 258.833 1031.39 259.767 1032.39 260.9C1033.45 261.967 1033.99 263.3 1033.99 264.9C1033.99 266.7 1033.32 268.133 1031.99 269.2C1030.72 270.2 1028.95 270.7 1026.69 270.7C1024.82 270.7 1023.09 270.367 1021.49 269.7C1019.95 268.967 1018.59 268 1017.39 266.8C1016.19 265.6 1015.12 264.3 1014.19 262.9ZM1077.1 277H1126.5V269H1094.6L1116.9 246.3C1119.63 243.5 1121.87 240.333 1123.6 236.8C1125.33 233.267 1126.2 229.7 1126.2 226.1C1126.2 223.967 1125.77 221.733 1124.9 219.4C1124.03 217.067 1122.7 214.9 1120.9 212.9C1119.1 210.833 1116.8 209.167 1114 207.9C1111.2 206.567 1107.87 205.9 1104 205.9C1099.2 205.9 1095.07 206.967 1091.6 209.1C1088.2 211.167 1085.6 214.1 1083.8 217.9C1082 221.633 1081.1 226 1081.1 231H1089.6C1089.6 227.467 1090.17 224.433 1091.3 221.9C1092.43 219.3 1094.07 217.333 1096.2 216C1098.4 214.6 1101 213.9 1104 213.9C1106.13 213.9 1108.03 214.267 1109.7 215C1111.37 215.733 1112.77 216.7 1113.9 217.9C1115.1 219.1 1116 220.433 1116.6 221.9C1117.2 223.367 1117.5 224.867 1117.5 226.4C1117.5 228.267 1117.2 230.067 1116.6 231.8C1116.07 233.467 1115.23 235.133 1114.1 236.8C1113.03 238.4 1111.73 240.033 1110.2 241.7L1077.1 277ZM1144.53 242C1144.53 237.933 1144.93 234.2 1145.73 230.8C1146.53 227.333 1147.7 224.367 1149.23 221.9C1150.77 219.367 1152.6 217.433 1154.73 216.1C1156.93 214.7 1159.37 214 1162.03 214C1164.77 214 1167.2 214.7 1169.33 216.1C1171.47 217.433 1173.3 219.367 1174.83 221.9C1176.37 224.367 1177.53 227.333 1178.33 230.8C1179.13 234.2 1179.53 237.933 1179.53 242C1179.53 246.067 1179.13 249.833 1178.33 253.3C1177.53 256.7 1176.37 259.667 1174.83 262.2C1173.3 264.667 1171.47 266.6 1169.33 268C1167.2 269.333 1164.77 270 1162.03 270C1159.37 270 1156.93 269.333 1154.73 268C1152.6 266.6 1150.77 264.667 1149.23 262.2C1147.7 259.667 1146.53 256.7 1145.73 253.3C1144.93 249.833 1144.53 246.067 1144.53 242ZM1136.03 242C1136.03 249 1137.13 255.2 1139.33 260.6C1141.53 266 1144.57 270.267 1148.43 273.4C1152.37 276.467 1156.9 278 1162.03 278C1167.17 278 1171.67 276.467 1175.53 273.4C1179.47 270.267 1182.53 266 1184.73 260.6C1186.93 255.2 1188.03 249 1188.03 242C1188.03 235 1186.93 228.8 1184.73 223.4C1182.53 218 1179.47 213.767 1175.53 210.7C1171.67 207.567 1167.17 206 1162.03 206C1156.9 206 1152.37 207.567 1148.43 210.7C1144.57 213.767 1141.53 218 1139.33 223.4C1137.13 228.8 1136.03 235 1136.03 242ZM1193.99 277H1243.39V269H1211.49L1233.79 246.3C1236.53 243.5 1238.76 240.333 1240.49 236.8C1242.23 233.267 1243.09 229.7 1243.09 226.1C1243.09 223.967 1242.66 221.733 1241.79 219.4C1240.93 217.067 1239.59 214.9 1237.79 212.9C1235.99 210.833 1233.69 209.167 1230.89 207.9C1228.09 206.567 1224.76 205.9 1220.89 205.9C1216.09 205.9 1211.96 206.967 1208.49 209.1C1205.09 211.167 1202.49 214.1 1200.69 217.9C1198.89 221.633 1197.99 226 1197.99 231H1206.49C1206.49 227.467 1207.06 224.433 1208.19 221.9C1209.33 219.3 1210.96 217.333 1213.09 216C1215.29 214.6 1217.89 213.9 1220.89 213.9C1223.03 213.9 1224.93 214.267 1226.59 215C1228.26 215.733 1229.66 216.7 1230.79 217.9C1231.99 219.1 1232.89 220.433 1233.49 221.9C1234.09 223.367 1234.39 224.867 1234.39 226.4C1234.39 228.267 1234.09 230.067 1233.49 231.8C1232.96 233.467 1232.13 235.133 1230.99 236.8C1229.93 238.4 1228.63 240.033 1227.09 241.7L1193.99 277ZM1250.93 277H1300.33V269H1268.43L1290.73 246.3C1293.46 243.5 1295.69 240.333 1297.43 236.8C1299.16 233.267 1300.03 229.7 1300.03 226.1C1300.03 223.967 1299.59 221.733 1298.73 219.4C1297.86 217.067 1296.53 214.9 1294.73 212.9C1292.93 210.833 1290.63 209.167 1287.83 207.9C1285.03 206.567 1281.69 205.9 1277.83 205.9C1273.03 205.9 1268.89 206.967 1265.43 209.1C1262.03 211.167 1259.43 214.1 1257.63 217.9C1255.83 221.633 1254.93 226 1254.93 231H1263.43C1263.43 227.467 1263.99 224.433 1265.13 221.9C1266.26 219.3 1267.89 217.333 1270.03 216C1272.23 214.6 1274.83 213.9 1277.83 213.9C1279.96 213.9 1281.86 214.267 1283.53 215C1285.19 215.733 1286.59 216.7 1287.73 217.9C1288.93 219.1 1289.83 220.433 1290.43 221.9C1291.03 223.367 1291.33 224.867 1291.33 226.4C1291.33 228.267 1291.03 230.067 1290.43 231.8C1289.89 233.467 1289.06 235.133 1287.93 236.8C1286.86 238.4 1285.56 240.033 1284.03 241.7L1250.93 277Z" fill="#B6FE0D"/>
<path d="M603.882 366.3C603.882 361.817 604.866 357.909 606.834 354.574C608.856 351.185 611.48 348.533 614.706 346.62C617.931 344.707 621.43 343.75 625.202 343.75C627.935 343.75 630.422 344.105 632.664 344.816C634.96 345.527 637.037 346.538 638.896 347.85C640.754 349.107 642.34 350.583 643.652 352.278V343.094C641.246 340.962 638.622 339.377 635.78 338.338C632.937 337.299 629.411 336.78 625.202 336.78C621.211 336.78 617.466 337.518 613.968 338.994C610.524 340.415 607.49 342.465 604.866 345.144C602.242 347.768 600.192 350.884 598.716 354.492C597.24 358.1 596.502 362.036 596.502 366.3C596.502 370.564 597.24 374.5 598.716 378.108C600.192 381.716 602.242 384.859 604.866 387.538C607.49 390.162 610.524 392.212 613.968 393.688C617.466 395.109 621.211 395.82 625.202 395.82C629.411 395.82 632.937 395.301 635.78 394.262C638.622 393.223 641.246 391.638 643.652 389.506V380.322C642.34 382.017 640.754 383.52 638.896 384.832C637.037 386.089 634.96 387.073 632.664 387.784C630.422 388.495 627.935 388.85 625.202 388.85C621.43 388.85 617.931 387.893 614.706 385.98C611.48 384.067 608.856 381.415 606.834 378.026C604.866 374.637 603.882 370.728 603.882 366.3ZM652.226 376.14C652.226 379.912 653.074 383.301 654.768 386.308C656.518 389.26 658.868 391.583 661.82 393.278C664.772 394.973 668.08 395.82 671.742 395.82C675.46 395.82 678.767 394.973 681.664 393.278C684.616 391.583 686.94 389.26 688.634 386.308C690.384 383.301 691.258 379.912 691.258 376.14C691.258 372.313 690.384 368.924 688.634 365.972C686.94 363.02 684.616 360.697 681.664 359.002C678.767 357.307 675.46 356.46 671.742 356.46C668.08 356.46 664.772 357.307 661.82 359.002C658.868 360.697 656.518 363.02 654.768 365.972C653.074 368.924 652.226 372.313 652.226 376.14ZM658.868 376.14C658.868 373.516 659.415 371.193 660.508 369.17C661.656 367.093 663.187 365.48 665.1 364.332C667.068 363.184 669.282 362.61 671.742 362.61C674.202 362.61 676.389 363.184 678.302 364.332C680.27 365.48 681.801 367.093 682.894 369.17C684.042 371.193 684.616 373.516 684.616 376.14C684.616 378.764 684.042 381.087 682.894 383.11C681.801 385.133 680.27 386.745 678.302 387.948C676.389 389.096 674.202 389.67 671.742 389.67C669.282 389.67 667.068 389.096 665.1 387.948C663.187 386.745 661.656 385.133 660.508 383.11C659.415 381.087 658.868 378.764 658.868 376.14ZM724.46 372.04V395H731.02V371.22C731.02 366.683 729.845 363.102 727.494 360.478C725.198 357.799 722.055 356.46 718.064 356.46C715.604 356.46 713.417 357.007 711.504 358.1C709.645 359.193 708.087 360.888 706.83 363.184V357.28H700.27V395H706.83V372.04C706.83 370.181 707.213 368.541 707.978 367.12C708.798 365.699 709.919 364.605 711.34 363.84C712.816 363.02 714.511 362.61 716.424 362.61C719.048 362.61 721.043 363.403 722.41 364.988C723.777 366.573 724.46 368.924 724.46 372.04ZM767.542 372.04V395H774.102V371.22C774.102 366.683 772.927 363.102 770.576 360.478C768.28 357.799 765.137 356.46 761.146 356.46C758.686 356.46 756.499 357.007 754.586 358.1C752.727 359.193 751.169 360.888 749.912 363.184V357.28H743.352V395H749.912V372.04C749.912 370.181 750.295 368.541 751.06 367.12C751.88 365.699 753.001 364.605 754.422 363.84C755.898 363.02 757.593 362.61 759.506 362.61C762.13 362.61 764.125 363.403 765.492 364.988C766.859 366.573 767.542 368.924 767.542 372.04ZM801.03 395.82C805.076 395.82 808.574 395.027 811.526 393.442C814.533 391.802 817.02 389.397 818.988 386.226L813.658 382.864C812.292 385.16 810.624 386.882 808.656 388.03C806.688 389.123 804.42 389.67 801.85 389.67C799.281 389.67 797.094 389.123 795.29 388.03C793.486 386.937 792.12 385.351 791.19 383.274C790.261 381.197 789.796 378.682 789.796 375.73C789.851 372.833 790.343 370.4 791.272 368.432C792.256 366.409 793.623 364.879 795.372 363.84C797.176 362.747 799.336 362.2 801.85 362.2C803.982 362.2 805.841 362.665 807.426 363.594C809.012 364.523 810.242 365.808 811.116 367.448C812.046 369.088 812.51 371.029 812.51 373.27C812.51 373.653 812.428 374.145 812.264 374.746C812.1 375.293 811.936 375.703 811.772 375.976L814.396 372.204H787.336V377.78H819.562C819.562 377.671 819.562 377.425 819.562 377.042C819.617 376.605 819.644 376.195 819.644 375.812C819.644 371.821 818.934 368.377 817.512 365.48C816.091 362.583 814.041 360.369 811.362 358.838C808.738 357.253 805.568 356.46 801.85 356.46C798.133 356.46 794.853 357.28 792.01 358.92C789.222 360.56 787.036 362.856 785.45 365.808C783.92 368.76 783.154 372.204 783.154 376.14C783.154 380.021 783.892 383.438 785.368 386.39C786.899 389.342 789.004 391.665 791.682 393.36C794.416 395 797.532 395.82 801.03 395.82ZM831.587 376.14C831.587 373.516 832.134 371.193 833.227 369.17C834.375 367.093 835.906 365.48 837.819 364.332C839.787 363.184 842.001 362.61 844.461 362.61C846.484 362.61 848.37 362.938 850.119 363.594C851.923 364.195 853.481 365.015 854.793 366.054C856.105 367.093 857.035 368.241 857.581 369.498V361.298C856.269 359.767 854.383 358.592 851.923 357.772C849.518 356.897 847.031 356.46 844.461 356.46C840.799 356.46 837.491 357.307 834.539 359.002C831.587 360.697 829.237 363.02 827.487 365.972C825.793 368.924 824.945 372.313 824.945 376.14C824.945 379.912 825.793 383.301 827.487 386.308C829.237 389.26 831.587 391.583 834.539 393.278C837.491 394.973 840.799 395.82 844.461 395.82C847.031 395.82 849.518 395.41 851.923 394.59C854.383 393.715 856.269 392.513 857.581 390.982V382.782C857.035 383.985 856.105 385.133 854.793 386.226C853.481 387.265 851.923 388.112 850.119 388.768C848.37 389.369 846.484 389.67 844.461 389.67C842.001 389.67 839.787 389.096 837.819 387.948C835.906 386.745 834.375 385.133 833.227 383.11C832.134 381.087 831.587 378.764 831.587 376.14ZM862.054 357.28V363.43H880.914V357.28H862.054ZM868.204 344.16V395H874.764V344.16H868.204ZM902.089 395.82C906.134 395.82 909.633 395.027 912.585 393.442C915.591 391.802 918.079 389.397 920.047 386.226L914.717 382.864C913.35 385.16 911.683 386.882 909.715 388.03C907.747 389.123 905.478 389.67 902.909 389.67C900.339 389.67 898.153 389.123 896.349 388.03C894.545 386.937 893.178 385.351 892.249 383.274C891.319 381.197 890.855 378.682 890.855 375.73C890.909 372.833 891.401 370.4 892.331 368.432C893.315 366.409 894.681 364.879 896.431 363.84C898.235 362.747 900.394 362.2 902.909 362.2C905.041 362.2 906.899 362.665 908.485 363.594C910.07 364.523 911.3 365.808 912.175 367.448C913.104 369.088 913.569 371.029 913.569 373.27C913.569 373.653 913.487 374.145 913.323 374.746C913.159 375.293 912.995 375.703 912.831 375.976L915.455 372.204H888.395V377.78H920.621C920.621 377.671 920.621 377.425 920.621 377.042C920.675 376.605 920.703 376.195 920.703 375.812C920.703 371.821 919.992 368.377 918.571 365.48C917.149 362.583 915.099 360.369 912.421 358.838C909.797 357.253 906.626 356.46 902.909 356.46C899.191 356.46 895.911 357.28 893.069 358.92C890.281 360.56 888.094 362.856 886.509 365.808C884.978 368.76 884.213 372.204 884.213 376.14C884.213 380.021 884.951 383.438 886.427 386.39C887.957 389.342 890.062 391.665 892.741 393.36C895.474 395 898.59 395.82 902.089 395.82ZM946.943 363.43L923.573 395H957.193V388.85H935.463L958.833 357.28H926.033V363.43H946.943ZM984.644 357.28L1002.68 397.87L1020.72 357.28H1013.34L1002.68 383.93L992.024 357.28H984.644ZM1022.43 376.14C1022.43 379.912 1023.27 383.301 1024.97 386.308C1026.72 389.26 1029.07 391.583 1032.02 393.278C1034.97 394.973 1038.28 395.82 1041.94 395.82C1045.66 395.82 1048.97 394.973 1051.87 393.278C1054.82 391.583 1057.14 389.26 1058.84 386.308C1060.58 383.301 1061.46 379.912 1061.46 376.14C1061.46 372.313 1060.58 368.924 1058.84 365.972C1057.14 363.02 1054.82 360.697 1051.87 359.002C1048.97 357.307 1045.66 356.46 1041.94 356.46C1038.28 356.46 1034.97 357.307 1032.02 359.002C1029.07 360.697 1026.72 363.02 1024.97 365.972C1023.27 368.924 1022.43 372.313 1022.43 376.14ZM1029.07 376.14C1029.07 373.516 1029.62 371.193 1030.71 369.17C1031.86 367.093 1033.39 365.48 1035.3 364.332C1037.27 363.184 1039.48 362.61 1041.94 362.61C1044.4 362.61 1046.59 363.184 1048.5 364.332C1050.47 365.48 1052 367.093 1053.1 369.17C1054.24 371.193 1054.82 373.516 1054.82 376.14C1054.82 378.764 1054.24 381.087 1053.1 383.11C1052 385.133 1050.47 386.745 1048.5 387.948C1046.59 389.096 1044.4 389.67 1041.94 389.67C1039.48 389.67 1037.27 389.096 1035.3 387.948C1033.39 386.745 1031.86 385.133 1030.71 383.11C1029.62 381.087 1029.07 378.764 1029.07 376.14ZM1077.03 380.24V357.28H1070.47V381.06C1070.47 385.543 1071.65 389.123 1074 391.802C1076.35 394.481 1079.49 395.82 1083.43 395.82C1085.94 395.82 1088.13 395.273 1089.99 394.18C1091.85 393.032 1093.4 391.337 1094.66 389.096V395H1101.22V357.28H1094.66V380.24C1094.66 382.099 1094.25 383.739 1093.43 385.16C1092.67 386.581 1091.55 387.702 1090.07 388.522C1088.65 389.287 1086.98 389.67 1085.07 389.67C1082.44 389.67 1080.45 388.85 1079.08 387.21C1077.71 385.57 1077.03 383.247 1077.03 380.24ZM1115.11 383.438L1109.95 386.636C1110.66 388.112 1111.69 389.561 1113.06 390.982C1114.48 392.403 1116.2 393.579 1118.23 394.508C1120.25 395.383 1122.52 395.82 1125.03 395.82C1128.91 395.82 1132.03 394.727 1134.38 392.54C1136.79 390.353 1137.99 387.62 1137.99 384.34C1137.99 382.099 1137.44 380.267 1136.35 378.846C1135.31 377.425 1133.89 376.222 1132.09 375.238C1130.28 374.199 1128.29 373.243 1126.1 372.368C1124.79 371.821 1123.53 371.247 1122.33 370.646C1121.12 370.045 1120.14 369.361 1119.38 368.596C1118.61 367.831 1118.23 366.956 1118.23 365.972C1118.23 364.715 1118.72 363.785 1119.7 363.184C1120.69 362.583 1121.86 362.282 1123.23 362.282C1125.2 362.282 1126.95 362.747 1128.48 363.676C1130.06 364.605 1131.37 365.781 1132.41 367.202L1137.66 363.84C1136.9 362.419 1135.83 361.161 1134.46 360.068C1133.1 358.975 1131.51 358.1 1129.71 357.444C1127.96 356.788 1126.07 356.46 1124.05 356.46C1122.03 356.46 1120.06 356.815 1118.15 357.526C1116.29 358.237 1114.76 359.33 1113.55 360.806C1112.41 362.282 1111.83 364.141 1111.83 366.382C1111.83 368.569 1112.38 370.4 1113.47 371.876C1114.62 373.297 1116.01 374.473 1117.65 375.402C1119.35 376.277 1121.02 377.042 1122.66 377.698C1124.13 378.245 1125.53 378.846 1126.84 379.502C1128.15 380.103 1129.22 380.869 1130.04 381.798C1130.91 382.673 1131.35 383.766 1131.35 385.078C1131.35 386.554 1130.8 387.729 1129.71 388.604C1128.67 389.424 1127.22 389.834 1125.36 389.834C1123.83 389.834 1122.41 389.561 1121.1 389.014C1119.84 388.413 1118.72 387.62 1117.74 386.636C1116.75 385.652 1115.88 384.586 1115.11 383.438ZM1177.36 413.04V357.28H1170.8V413.04H1177.36ZM1208.93 376.14C1208.93 372.04 1208.08 368.541 1206.39 365.644C1204.69 362.692 1202.42 360.423 1199.58 358.838C1196.79 357.253 1193.68 356.46 1190.23 356.46C1187.12 356.46 1184.36 357.253 1181.95 358.838C1179.6 360.423 1177.74 362.692 1176.38 365.644C1175.06 368.541 1174.41 372.04 1174.41 376.14C1174.41 380.185 1175.06 383.684 1176.38 386.636C1177.74 389.588 1179.6 391.857 1181.95 393.442C1184.36 395.027 1187.12 395.82 1190.23 395.82C1193.68 395.82 1196.79 395.027 1199.58 393.442C1202.42 391.857 1204.69 389.588 1206.39 386.636C1208.08 383.684 1208.93 380.185 1208.93 376.14ZM1202.29 376.14C1202.29 379.037 1201.69 381.497 1200.48 383.52C1199.34 385.543 1197.78 387.073 1195.81 388.112C1193.9 389.151 1191.76 389.67 1189.41 389.67C1187.5 389.67 1185.61 389.151 1183.76 388.112C1181.9 387.073 1180.37 385.543 1179.16 383.52C1177.96 381.497 1177.36 379.037 1177.36 376.14C1177.36 373.243 1177.96 370.783 1179.16 368.76C1180.37 366.737 1181.9 365.207 1183.76 364.168C1185.61 363.129 1187.5 362.61 1189.41 362.61C1191.76 362.61 1193.9 363.129 1195.81 364.168C1197.78 365.207 1199.34 366.737 1200.48 368.76C1201.69 370.783 1202.29 373.243 1202.29 376.14ZM1214.7 376.14C1214.7 379.912 1215.54 383.301 1217.24 386.308C1218.99 389.26 1221.34 391.583 1224.29 393.278C1227.24 394.973 1230.55 395.82 1234.21 395.82C1237.93 395.82 1241.24 394.973 1244.13 393.278C1247.09 391.583 1249.41 389.26 1251.1 386.308C1252.85 383.301 1253.73 379.912 1253.73 376.14C1253.73 372.313 1252.85 368.924 1251.1 365.972C1249.41 363.02 1247.09 360.697 1244.13 359.002C1241.24 357.307 1237.93 356.46 1234.21 356.46C1230.55 356.46 1227.24 357.307 1224.29 359.002C1221.34 360.697 1218.99 363.02 1217.24 365.972C1215.54 368.924 1214.7 372.313 1214.7 376.14ZM1221.34 376.14C1221.34 373.516 1221.88 371.193 1222.98 369.17C1224.13 367.093 1225.66 365.48 1227.57 364.332C1229.54 363.184 1231.75 362.61 1234.21 362.61C1236.67 362.61 1238.86 363.184 1240.77 364.332C1242.74 365.48 1244.27 367.093 1245.36 369.17C1246.51 371.193 1247.09 373.516 1247.09 376.14C1247.09 378.764 1246.51 381.087 1245.36 383.11C1244.27 385.133 1242.74 386.745 1240.77 387.948C1238.86 389.096 1236.67 389.67 1234.21 389.67C1231.75 389.67 1229.54 389.096 1227.57 387.948C1225.66 386.745 1224.13 385.133 1222.98 383.11C1221.88 381.087 1221.34 378.764 1221.34 376.14ZM1269.3 380.24V357.28H1262.74V381.06C1262.74 385.543 1263.91 389.123 1266.26 391.802C1268.62 394.481 1271.76 395.82 1275.69 395.82C1278.21 395.82 1280.4 395.273 1282.25 394.18C1284.11 393.032 1285.67 391.337 1286.93 389.096V395H1293.49V357.28H1286.93V380.24C1286.93 382.099 1286.52 383.739 1285.7 385.16C1284.93 386.581 1283.81 387.702 1282.34 388.522C1280.92 389.287 1279.25 389.67 1277.33 389.67C1274.71 389.67 1272.72 388.85 1271.35 387.21C1269.98 385.57 1269.3 383.247 1269.3 380.24ZM1312.38 357.28H1305.82V395H1312.38V357.28ZM1323.78 364.496L1327.39 359.084C1326.4 358.045 1325.31 357.362 1324.11 357.034C1322.96 356.651 1321.7 356.46 1320.33 356.46C1318.59 356.46 1316.86 357.143 1315.17 358.51C1313.47 359.877 1312.08 361.735 1310.99 364.086C1309.95 366.382 1309.43 369.033 1309.43 372.04H1312.38C1312.38 370.236 1312.54 368.623 1312.87 367.202C1313.26 365.781 1313.91 364.66 1314.84 363.84C1315.77 363.02 1317.05 362.61 1318.69 362.61C1319.79 362.61 1320.69 362.774 1321.4 363.102C1322.11 363.375 1322.9 363.84 1323.78 364.496ZM592.794 501.356C592.794 499.989 593.122 498.814 593.778 497.83C594.434 496.846 595.418 496.081 596.73 495.534C598.097 494.987 599.846 494.714 601.978 494.714C604.274 494.714 606.434 495.015 608.456 495.616C610.479 496.163 612.447 497.092 614.36 498.404V494.55C613.978 494.058 613.24 493.429 612.146 492.664C611.053 491.844 609.577 491.133 607.718 490.532C605.914 489.876 603.646 489.548 600.912 489.548C596.266 489.548 592.63 490.669 590.006 492.91C587.437 495.097 586.152 498.021 586.152 501.684C586.152 504.253 586.754 506.44 587.956 508.244C589.159 510.048 590.744 511.442 592.712 512.426C594.735 513.355 596.894 513.82 599.19 513.82C601.268 513.82 603.345 513.437 605.422 512.672C607.554 511.907 609.331 510.731 610.752 509.146C612.228 507.561 612.966 505.565 612.966 503.16L611.654 498.24C611.654 500.208 611.162 501.957 610.178 503.488C609.249 504.964 607.964 506.112 606.324 506.932C604.739 507.752 602.935 508.162 600.912 508.162C599.327 508.162 597.906 507.916 596.648 507.424C595.446 506.877 594.489 506.085 593.778 505.046C593.122 504.007 592.794 502.777 592.794 501.356ZM591.81 483.972C592.412 483.535 593.232 483.015 594.27 482.414C595.309 481.813 596.566 481.293 598.042 480.856C599.573 480.419 601.268 480.2 603.126 480.2C604.274 480.2 605.368 480.309 606.406 480.528C607.445 480.747 608.347 481.102 609.112 481.594C609.932 482.086 610.561 482.769 610.998 483.644C611.436 484.464 611.654 485.53 611.654 486.842V513H618.214V485.94C618.214 483.48 617.586 481.403 616.328 479.708C615.126 478.013 613.404 476.729 611.162 475.854C608.976 474.925 606.406 474.46 603.454 474.46C599.956 474.46 596.949 474.979 594.434 476.018C591.974 477.057 590.034 478.095 588.612 479.134L591.81 483.972ZM632.273 494.14C632.273 491.516 632.82 489.193 633.913 487.17C635.061 485.093 636.592 483.48 638.505 482.332C640.473 481.184 642.687 480.61 645.147 480.61C647.17 480.61 649.056 480.938 650.805 481.594C652.609 482.195 654.167 483.015 655.479 484.054C656.791 485.093 657.72 486.241 658.267 487.498V479.298C656.955 477.767 655.069 476.592 652.609 475.772C650.204 474.897 647.716 474.46 645.147 474.46C641.484 474.46 638.177 475.307 635.225 477.002C632.273 478.697 629.922 481.02 628.173 483.972C626.478 486.924 625.631 490.313 625.631 494.14C625.631 497.912 626.478 501.301 628.173 504.308C629.922 507.26 632.273 509.583 635.225 511.278C638.177 512.973 641.484 513.82 645.147 513.82C647.716 513.82 650.204 513.41 652.609 512.59C655.069 511.715 656.955 510.513 658.267 508.982V500.782C657.72 501.985 656.791 503.133 655.479 504.226C654.167 505.265 652.609 506.112 650.805 506.768C649.056 507.369 647.17 507.67 645.147 507.67C642.687 507.67 640.473 507.096 638.505 505.948C636.592 504.745 635.061 503.133 633.913 501.11C632.82 499.087 632.273 496.764 632.273 494.14ZM671.431 494.14C671.431 491.516 671.978 489.193 673.071 487.17C674.219 485.093 675.75 483.48 677.663 482.332C679.631 481.184 681.845 480.61 684.305 480.61C686.328 480.61 688.214 480.938 689.963 481.594C691.767 482.195 693.325 483.015 694.637 484.054C695.949 485.093 696.878 486.241 697.425 487.498V479.298C696.113 477.767 694.227 476.592 691.767 475.772C689.362 474.897 686.874 474.46 684.305 474.46C680.642 474.46 677.335 475.307 674.383 477.002C671.431 478.697 669.08 481.02 667.331 483.972C665.636 486.924 664.789 490.313 664.789 494.14C664.789 497.912 665.636 501.301 667.331 504.308C669.08 507.26 671.431 509.583 674.383 511.278C677.335 512.973 680.642 513.82 684.305 513.82C686.874 513.82 689.362 513.41 691.767 512.59C694.227 511.715 696.113 510.513 697.425 508.982V500.782C696.878 501.985 695.949 503.133 694.637 504.226C693.325 505.265 691.767 506.112 689.963 506.768C688.214 507.369 686.328 507.67 684.305 507.67C681.845 507.67 679.631 507.096 677.663 505.948C675.75 504.745 674.219 503.133 673.071 501.11C671.978 499.087 671.431 496.764 671.431 494.14ZM708.539 495.78H740.765C740.82 495.452 740.847 495.124 740.847 494.796C740.847 494.468 740.847 494.14 740.847 493.812C740.847 489.821 740.109 486.405 738.633 483.562C737.157 480.665 735.08 478.423 732.401 476.838C729.723 475.253 726.607 474.46 723.053 474.46C719.828 474.46 716.903 475.116 714.279 476.428C711.71 477.74 709.605 479.571 707.965 481.922C706.325 484.273 705.232 487.006 704.685 490.122C704.576 490.778 704.494 491.434 704.439 492.09C704.385 492.746 704.357 493.429 704.357 494.14C704.357 497.912 705.123 501.301 706.653 504.308C708.239 507.26 710.371 509.583 713.049 511.278C715.783 512.973 718.844 513.82 722.233 513.82C725.513 513.82 728.247 513.437 730.433 512.672C732.62 511.852 734.479 510.731 736.009 509.31C737.54 507.834 738.934 506.139 740.191 504.226L734.861 500.864C734.041 502.231 733.057 503.433 731.909 504.472C730.761 505.456 729.449 506.249 727.973 506.85C726.552 507.397 724.912 507.67 723.053 507.67C720.593 507.67 718.461 507.151 716.657 506.112C714.853 505.073 713.459 503.543 712.475 501.52C711.491 499.497 710.999 497.037 710.999 494.14L711.163 491.68C711.163 489.329 711.683 487.307 712.721 485.612C713.815 483.863 715.263 482.523 717.067 481.594C718.871 480.665 720.867 480.2 723.053 480.2C725.24 480.2 727.071 480.637 728.547 481.512C730.078 482.332 731.253 483.507 732.073 485.038C732.948 486.514 733.495 488.236 733.713 490.204H708.539V495.78ZM736.173 456.42L730.023 453.14L717.723 466.26L721.413 468.72L736.173 456.42ZM778.128 449.04V513H784.688V449.04H778.128ZM746.558 494.14C746.558 498.185 747.406 501.684 749.1 504.636C750.795 507.588 753.064 509.857 755.906 511.442C758.749 513.027 761.865 513.82 765.254 513.82C768.425 513.82 771.186 513.027 773.536 511.442C775.887 509.857 777.718 507.588 779.03 504.636C780.397 501.684 781.08 498.185 781.08 494.14C781.08 490.04 780.397 486.541 779.03 483.644C777.718 480.692 775.887 478.423 773.536 476.838C771.186 475.253 768.425 474.46 765.254 474.46C761.865 474.46 758.749 475.253 755.906 476.838C753.064 478.423 750.795 480.692 749.1 483.644C747.406 486.541 746.558 490.04 746.558 494.14ZM753.2 494.14C753.2 491.243 753.774 488.783 754.922 486.76C756.125 484.737 757.71 483.207 759.678 482.168C761.646 481.129 763.778 480.61 766.074 480.61C767.988 480.61 769.874 481.129 771.732 482.168C773.591 483.207 775.122 484.737 776.324 486.76C777.527 488.783 778.128 491.243 778.128 494.14C778.128 497.037 777.527 499.497 776.324 501.52C775.122 503.543 773.591 505.073 771.732 506.112C769.874 507.151 767.988 507.67 766.074 507.67C763.778 507.67 761.646 507.151 759.678 506.112C757.71 505.073 756.125 503.543 754.922 501.52C753.774 499.497 753.2 497.037 753.2 494.14ZM811.2 513.82C815.245 513.82 818.744 513.027 821.696 511.442C824.703 509.802 827.19 507.397 829.158 504.226L823.828 500.864C822.461 503.16 820.794 504.882 818.826 506.03C816.858 507.123 814.589 507.67 812.02 507.67C809.451 507.67 807.264 507.123 805.46 506.03C803.656 504.937 802.289 503.351 801.36 501.274C800.431 499.197 799.966 496.682 799.966 493.73C800.021 490.833 800.513 488.4 801.442 486.432C802.426 484.409 803.793 482.879 805.542 481.84C807.346 480.747 809.505 480.2 812.02 480.2C814.152 480.2 816.011 480.665 817.596 481.594C819.181 482.523 820.411 483.808 821.286 485.448C822.215 487.088 822.68 489.029 822.68 491.27C822.68 491.653 822.598 492.145 822.434 492.746C822.27 493.293 822.106 493.703 821.942 493.976L824.566 490.204H797.506V495.78H829.732C829.732 495.671 829.732 495.425 829.732 495.042C829.787 494.605 829.814 494.195 829.814 493.812C829.814 489.821 829.103 486.377 827.682 483.48C826.261 480.583 824.211 478.369 821.532 476.838C818.908 475.253 815.737 474.46 812.02 474.46C808.303 474.46 805.023 475.28 802.18 476.92C799.392 478.56 797.205 480.856 795.62 483.808C794.089 486.76 793.324 490.204 793.324 494.14C793.324 498.021 794.062 501.438 795.538 504.39C797.069 507.342 799.173 509.665 801.852 511.36C804.585 513 807.701 513.82 811.2 513.82ZM845.365 475.28H838.805V513H845.365V475.28ZM856.763 482.496L860.371 477.084C859.387 476.045 858.294 475.362 857.091 475.034C855.943 474.651 854.686 474.46 853.319 474.46C851.57 474.46 849.848 475.143 848.153 476.51C846.459 477.877 845.065 479.735 843.971 482.086C842.933 484.382 842.413 487.033 842.413 490.04H845.365C845.365 488.236 845.529 486.623 845.857 485.202C846.24 483.781 846.896 482.66 847.825 481.84C848.755 481.02 850.039 480.61 851.679 480.61C852.773 480.61 853.675 480.774 854.385 481.102C855.096 481.375 855.889 481.84 856.763 482.496ZM894.449 501.93C894.449 500.399 894.804 499.087 895.515 497.994C896.225 496.901 897.291 496.053 898.713 495.452C900.189 494.851 902.02 494.55 904.207 494.55C906.612 494.55 908.771 494.878 910.685 495.534C912.598 496.135 914.484 497.092 916.343 498.404V494.55C915.96 494.058 915.249 493.429 914.211 492.664C913.172 491.844 911.778 491.133 910.029 490.532C908.334 489.876 906.284 489.548 903.879 489.548C900.872 489.548 898.139 490.04 895.679 491.024C893.273 492.008 891.36 493.484 889.939 495.452C888.517 497.365 887.807 499.798 887.807 502.75C887.807 505.046 888.326 507.014 889.365 508.654C890.458 510.294 891.989 511.579 893.957 512.508C895.925 513.383 898.193 513.82 900.763 513.82C903.387 513.82 905.765 513.383 907.897 512.508C910.029 511.579 911.723 510.267 912.981 508.572C914.293 506.823 914.949 504.745 914.949 502.34L913.637 498.24C913.637 500.591 913.145 502.477 912.161 503.898C911.231 505.319 909.919 506.358 908.225 507.014C906.53 507.67 904.589 507.998 902.403 507.998C900.653 507.998 899.177 507.779 897.975 507.342C896.827 506.85 895.952 506.167 895.351 505.292C894.749 504.363 894.449 503.242 894.449 501.93ZM894.449 484.136C895.05 483.699 895.87 483.179 896.909 482.578C898.002 481.922 899.287 481.375 900.763 480.938C902.239 480.446 903.879 480.2 905.683 480.2C907.76 480.2 909.591 480.692 911.177 481.676C912.817 482.605 913.637 484.027 913.637 485.94V513H920.197V485.94C920.197 483.48 919.568 481.403 918.311 479.708C917.108 478.013 915.413 476.729 913.227 475.854C911.095 474.925 908.58 474.46 905.683 474.46C902.293 474.46 899.396 474.979 896.991 476.018C894.585 477.057 892.672 478.095 891.251 479.134L894.449 484.136ZM892.563 457.24L907.323 469.54L911.013 467.08L898.713 453.96L892.563 457.24ZM949.729 475.28L967.769 515.87L985.809 475.28H978.429L967.769 501.93L957.109 475.28H949.729ZM987.514 494.14C987.514 497.912 988.361 501.301 990.056 504.308C991.805 507.26 994.156 509.583 997.108 511.278C1000.06 512.973 1003.37 513.82 1007.03 513.82C1010.75 513.82 1014.05 512.973 1016.95 511.278C1019.9 509.583 1022.23 507.26 1023.92 504.308C1025.67 501.301 1026.55 497.912 1026.55 494.14C1026.55 490.313 1025.67 486.924 1023.92 483.972C1022.23 481.02 1019.9 478.697 1016.95 477.002C1014.05 475.307 1010.75 474.46 1007.03 474.46C1003.37 474.46 1000.06 475.307 997.108 477.002C994.156 478.697 991.805 481.02 990.056 483.972C988.361 486.924 987.514 490.313 987.514 494.14ZM994.156 494.14C994.156 491.516 994.702 489.193 995.796 487.17C996.944 485.093 998.474 483.48 1000.39 482.332C1002.36 481.184 1004.57 480.61 1007.03 480.61C1009.49 480.61 1011.68 481.184 1013.59 482.332C1015.56 483.48 1017.09 485.093 1018.18 487.17C1019.33 489.193 1019.9 491.516 1019.9 494.14C1019.9 496.764 1019.33 499.087 1018.18 501.11C1017.09 503.133 1015.56 504.745 1013.59 505.948C1011.68 507.096 1009.49 507.67 1007.03 507.67C1004.57 507.67 1002.36 507.096 1000.39 505.948C998.474 504.745 996.944 503.133 995.796 501.11C994.702 499.087 994.156 496.764 994.156 494.14ZM1029.82 475.28V481.43H1048.68V475.28H1029.82ZM1035.97 462.16V513H1042.53V462.16H1035.97ZM1061.82 475.28H1055.26V513H1061.82V475.28ZM1073.21 482.496L1076.82 477.084C1075.84 476.045 1074.75 475.362 1073.54 475.034C1072.39 474.651 1071.14 474.46 1069.77 474.46C1068.02 474.46 1066.3 475.143 1064.6 476.51C1062.91 477.877 1061.52 479.735 1060.42 482.086C1059.38 484.382 1058.86 487.033 1058.86 490.04H1061.82C1061.82 488.236 1061.98 486.623 1062.31 485.202C1062.69 483.781 1063.35 482.66 1064.28 481.84C1065.21 481.02 1066.49 480.61 1068.13 480.61C1069.22 480.61 1070.13 480.774 1070.84 481.102C1071.55 481.375 1072.34 481.84 1073.21 482.496ZM1096.76 513.82C1100.8 513.82 1104.3 513.027 1107.25 511.442C1110.26 509.802 1112.75 507.397 1114.72 504.226L1109.39 500.864C1108.02 503.16 1106.35 504.882 1104.38 506.03C1102.42 507.123 1100.15 507.67 1097.58 507.67C1095.01 507.67 1092.82 507.123 1091.02 506.03C1089.21 504.937 1087.85 503.351 1086.92 501.274C1085.99 499.197 1085.52 496.682 1085.52 493.73C1085.58 490.833 1086.07 488.4 1087 486.432C1087.98 484.409 1089.35 482.879 1091.1 481.84C1092.9 480.747 1095.06 480.2 1097.58 480.2C1099.71 480.2 1101.57 480.665 1103.15 481.594C1104.74 482.523 1105.97 483.808 1106.84 485.448C1107.77 487.088 1108.24 489.029 1108.24 491.27C1108.24 491.653 1108.16 492.145 1107.99 492.746C1107.83 493.293 1107.66 493.703 1107.5 493.976L1110.12 490.204H1083.06V495.78H1115.29C1115.29 495.671 1115.29 495.425 1115.29 495.042C1115.35 494.605 1115.37 494.195 1115.37 493.812C1115.37 489.821 1114.66 486.377 1113.24 483.48C1111.82 480.583 1109.77 478.369 1107.09 476.838C1104.47 475.253 1101.3 474.46 1097.58 474.46C1093.86 474.46 1090.58 475.28 1087.74 476.92C1084.95 478.56 1082.76 480.856 1081.18 483.808C1079.65 486.76 1078.88 490.204 1078.88 494.14C1078.88 498.021 1079.62 501.438 1081.1 504.39C1082.63 507.342 1084.73 509.665 1087.41 511.36C1090.14 513 1093.26 513.82 1096.76 513.82ZM1155.51 475.28H1148.95V513H1155.51V475.28ZM1166.91 482.496L1170.51 477.084C1169.53 476.045 1168.44 475.362 1167.23 475.034C1166.09 474.651 1164.83 474.46 1163.46 474.46C1161.71 474.46 1159.99 475.143 1158.3 476.51C1156.6 477.877 1155.21 479.735 1154.11 482.086C1153.08 484.382 1152.56 487.033 1152.56 490.04H1155.51C1155.51 488.236 1155.67 486.623 1156 485.202C1156.38 483.781 1157.04 482.66 1157.97 481.84C1158.9 481.02 1160.18 480.61 1161.82 480.61C1162.92 480.61 1163.82 480.774 1164.53 481.102C1165.24 481.375 1166.03 481.84 1166.91 482.496ZM1176.76 495.78H1208.98C1209.04 495.452 1209.06 495.124 1209.06 494.796C1209.06 494.468 1209.06 494.14 1209.06 493.812C1209.06 489.821 1208.33 486.405 1206.85 483.562C1205.37 480.665 1203.3 478.423 1200.62 476.838C1197.94 475.253 1194.82 474.46 1191.27 474.46C1188.04 474.46 1185.12 475.116 1182.5 476.428C1179.93 477.74 1177.82 479.571 1176.18 481.922C1174.54 484.273 1173.45 487.006 1172.9 490.122C1172.79 490.778 1172.71 491.434 1172.66 492.09C1172.6 492.746 1172.57 493.429 1172.57 494.14C1172.57 497.912 1173.34 501.301 1174.87 504.308C1176.46 507.26 1178.59 509.583 1181.27 511.278C1184 512.973 1187.06 513.82 1190.45 513.82C1193.73 513.82 1196.46 513.437 1198.65 512.672C1200.84 511.852 1202.7 510.731 1204.23 509.31C1205.76 507.834 1207.15 506.139 1208.41 504.226L1203.08 500.864C1202.26 502.231 1201.27 503.433 1200.13 504.472C1198.98 505.456 1197.67 506.249 1196.19 506.85C1194.77 507.397 1193.13 507.67 1191.27 507.67C1188.81 507.67 1186.68 507.151 1184.87 506.112C1183.07 505.073 1181.68 503.543 1180.69 501.52C1179.71 499.497 1179.22 497.037 1179.22 494.14L1179.38 491.68C1179.38 489.329 1179.9 487.307 1180.94 485.612C1182.03 483.863 1183.48 482.523 1185.28 481.594C1187.09 480.665 1189.08 480.2 1191.27 480.2C1193.46 480.2 1195.29 480.637 1196.76 481.512C1198.29 482.332 1199.47 483.507 1200.29 485.038C1201.16 486.514 1201.71 488.236 1201.93 490.204H1176.76V495.78ZM1204.39 456.42L1198.24 453.14L1185.94 466.26L1189.63 468.72L1204.39 456.42ZM1221.01 494.14C1221.01 491.516 1221.55 489.193 1222.65 487.17C1223.8 485.093 1225.33 483.48 1227.24 482.332C1229.21 481.184 1231.42 480.61 1233.88 480.61C1235.9 480.61 1237.79 480.938 1239.54 481.594C1241.34 482.195 1242.9 483.015 1244.21 484.054C1245.53 485.093 1246.45 486.241 1247 487.498V479.298C1245.69 477.767 1243.8 476.592 1241.34 475.772C1238.94 474.897 1236.45 474.46 1233.88 474.46C1230.22 474.46 1226.91 475.307 1223.96 477.002C1221.01 478.697 1218.66 481.02 1216.91 483.972C1215.21 486.924 1214.37 490.313 1214.37 494.14C1214.37 497.912 1215.21 501.301 1216.91 504.308C1218.66 507.26 1221.01 509.583 1223.96 511.278C1226.91 512.973 1230.22 513.82 1233.88 513.82C1236.45 513.82 1238.94 513.41 1241.34 512.59C1243.8 511.715 1245.69 510.513 1247 508.982V500.782C1246.45 501.985 1245.53 503.133 1244.21 504.226C1242.9 505.265 1241.34 506.112 1239.54 506.768C1237.79 507.369 1235.9 507.67 1233.88 507.67C1231.42 507.67 1229.21 507.096 1227.24 505.948C1225.33 504.745 1223.8 503.133 1222.65 501.11C1221.55 499.087 1221.01 496.764 1221.01 494.14ZM1260.17 501.356C1260.17 499.989 1260.49 498.814 1261.15 497.83C1261.81 496.846 1262.79 496.081 1264.1 495.534C1265.47 494.987 1267.22 494.714 1269.35 494.714C1271.65 494.714 1273.8 495.015 1275.83 495.616C1277.85 496.163 1279.82 497.092 1281.73 498.404V494.55C1281.35 494.058 1280.61 493.429 1279.52 492.664C1278.42 491.844 1276.95 491.133 1275.09 490.532C1273.29 489.876 1271.02 489.548 1268.28 489.548C1263.64 489.548 1260 490.669 1257.38 492.91C1254.81 495.097 1253.52 498.021 1253.52 501.684C1253.52 504.253 1254.12 506.44 1255.33 508.244C1256.53 510.048 1258.12 511.442 1260.08 512.426C1262.11 513.355 1264.27 513.82 1266.56 513.82C1268.64 513.82 1270.72 513.437 1272.79 512.672C1274.93 511.907 1276.7 510.731 1278.12 509.146C1279.6 507.561 1280.34 505.565 1280.34 503.16L1279.03 498.24C1279.03 500.208 1278.53 501.957 1277.55 503.488C1276.62 504.964 1275.34 506.112 1273.7 506.932C1272.11 507.752 1270.31 508.162 1268.28 508.162C1266.7 508.162 1265.28 507.916 1264.02 507.424C1262.82 506.877 1261.86 506.085 1261.15 505.046C1260.49 504.007 1260.17 502.777 1260.17 501.356ZM1259.18 483.972C1259.78 483.535 1260.6 483.015 1261.64 482.414C1262.68 481.813 1263.94 481.293 1265.41 480.856C1266.94 480.419 1268.64 480.2 1270.5 480.2C1271.65 480.2 1272.74 480.309 1273.78 480.528C1274.82 480.747 1275.72 481.102 1276.48 481.594C1277.3 482.086 1277.93 482.769 1278.37 483.644C1278.81 484.464 1279.03 485.53 1279.03 486.842V513H1285.59V485.94C1285.59 483.48 1284.96 481.403 1283.7 479.708C1282.5 478.013 1280.77 476.729 1278.53 475.854C1276.35 474.925 1273.78 474.46 1270.83 474.46C1267.33 474.46 1264.32 474.979 1261.81 476.018C1259.35 477.057 1257.4 478.095 1255.98 479.134L1259.18 483.972ZM1302.84 531.04V475.28H1296.28V531.04H1302.84ZM1334.41 494.14C1334.41 490.04 1333.56 486.541 1331.87 483.644C1330.18 480.692 1327.91 478.423 1325.06 476.838C1322.28 475.253 1319.16 474.46 1315.72 474.46C1312.6 474.46 1309.84 475.253 1307.43 476.838C1305.08 478.423 1303.22 480.692 1301.86 483.644C1300.55 486.541 1299.89 490.04 1299.89 494.14C1299.89 498.185 1300.55 501.684 1301.86 504.636C1303.22 507.588 1305.08 509.857 1307.43 511.442C1309.84 513.027 1312.6 513.82 1315.72 513.82C1319.16 513.82 1322.28 513.027 1325.06 511.442C1327.91 509.857 1330.18 507.588 1331.87 504.636C1333.56 501.684 1334.41 498.185 1334.41 494.14ZM1327.77 494.14C1327.77 497.037 1327.17 499.497 1325.97 501.52C1324.82 503.543 1323.26 505.073 1321.29 506.112C1319.38 507.151 1317.25 507.67 1314.9 507.67C1312.98 507.67 1311.1 507.151 1309.24 506.112C1307.38 505.073 1305.85 503.543 1304.65 501.52C1303.44 499.497 1302.84 497.037 1302.84 494.14C1302.84 491.243 1303.44 488.783 1304.65 486.76C1305.85 484.737 1307.38 483.207 1309.24 482.168C1311.1 481.129 1312.98 480.61 1314.9 480.61C1317.25 480.61 1319.38 481.129 1321.29 482.168C1323.26 483.207 1324.82 484.737 1325.97 486.76C1327.17 488.783 1327.77 491.243 1327.77 494.14Z" fill="white"/>
<line x1="1920" y1="983" x2="-1.96318e-07" y2="983" stroke="white" stroke-width="2"/>
<line x1="1920" y1="945" x2="-1.96318e-07" y2="945" stroke="white" stroke-opacity="0.8" stroke-width="2"/>
<line x1="1920" y1="869" x2="-1.74846e-07" y2="869" stroke="white" stroke-opacity="0.5" stroke-width="2"/>
<line x1="1920" y1="907" x2="-1.94611e-07" y2="907" stroke="white" stroke-opacity="0.7" stroke-width="2"/>
<line x1="1920" y1="831" x2="-1.94611e-07" y2="831" stroke="white" stroke-opacity="0.3" stroke-width="2"/>
<line x1="1920" y1="793" x2="-1.96318e-07" y2="793" stroke="white" stroke-opacity="0.2" stroke-width="2"/>
<path d="M417 759.5L-1 791.5L-0.5 1079H10.5L417 759.5Z" fill="#B6FE0D"/>
<path d="M503.5 909L71 1080H386L503.5 909Z" fill="#B6FE0D"/>
<path d="M1502.5 759.5L1920.5 791.5L1920 1079H1909L1502.5 759.5Z" fill="#B6FE0D"/>
<path d="M1416 909L1848.5 1080H1533.5L1416 909Z" fill="#B6FE0D"/>
<path d="M631.5 1027L564.5 1080H614.5L631.5 1027Z" fill="#0B21E6"/>
<path d="M1288.5 1026L1355 1080H1305L1288.5 1026Z" fill="#0B21E6"/>
<path d="M129.578 53.6061C129.059 52.4039 130.666 51.4764 131.447 52.5268L138.004 61.339C146.471 72.7178 161.48 76.878 174.308 71.4019L184.243 67.1609C185.427 66.6554 186.371 68.2897 185.341 69.0627L176.701 75.5458C165.544 83.9173 161.642 98.9953 167.263 112.017L171.616 122.102C172.135 123.304 170.529 124.232 169.747 123.181L163.19 114.369C154.723 102.99 139.714 98.83 126.886 104.306L116.952 108.547C115.767 109.053 114.824 107.418 115.854 106.645L124.494 100.162C135.65 91.7907 139.552 76.7127 133.931 63.6907L129.578 53.6061Z" fill="#FC198F"/>
<path d="M1778.82 49.3331C1779.01 48.0376 1777.22 47.5575 1776.74 48.7744L1772.69 58.9834C1767.45 72.1659 1754.03 80.0689 1740.22 78.0995L1729.53 76.5743C1728.26 76.3926 1727.77 78.2154 1728.96 78.6955L1738.99 82.7215C1751.93 87.9202 1759.6 101.475 1757.54 115.508L1755.95 126.375C1755.76 127.671 1757.55 128.151 1758.03 126.934L1762.08 116.725C1767.32 103.543 1780.74 95.6395 1794.55 97.609L1805.24 99.1342C1806.52 99.3158 1807 97.493 1805.81 97.013L1795.79 92.987C1782.84 87.7883 1775.17 74.2338 1777.23 60.2008L1778.82 49.3331Z" fill="#FC198F"/>
<path d="M92.1772 306.47C92.7755 304.963 94.9939 305.558 94.7587 307.162L92.7844 320.617C90.235 337.991 99.7326 354.773 115.757 361.209L128.168 366.194C129.647 366.788 129.042 369.045 127.464 368.82L114.224 366.932C97.1279 364.493 80.5119 374.278 74.0327 390.599L69.0149 403.239C68.4165 404.746 66.1982 404.151 66.4334 402.547L68.4077 389.092C70.957 371.718 61.4595 354.936 45.4345 348.5L33.0243 343.515C31.545 342.921 32.1497 340.664 33.728 340.889L46.9679 342.777C64.0641 345.215 80.6801 335.431 87.1594 319.11L92.1772 306.47Z" fill="#FC198F"/>
<path d="M1825.8 306.47C1825.21 304.963 1822.99 305.558 1823.22 307.162L1825.2 320.617C1827.75 337.991 1818.25 354.773 1802.22 361.209L1789.81 366.194C1788.33 366.788 1788.94 369.045 1790.52 368.82L1803.76 366.932C1820.85 364.493 1837.47 374.278 1843.95 390.599L1848.97 403.239C1849.56 404.746 1851.78 404.151 1851.55 402.547L1849.57 389.092C1847.02 371.718 1856.52 354.936 1872.55 348.5L1884.96 343.515C1886.44 342.921 1885.83 340.664 1884.25 340.889L1871.01 342.777C1853.92 345.215 1837.3 335.431 1830.82 319.11L1825.8 306.47Z" fill="#FC198F"/>
<path d="M119.676 587.114C119.764 586.363 120.835 586.363 120.922 587.114L121.657 593.411C122.605 601.543 128.907 607.954 136.9 608.919L143.09 609.666C143.828 609.755 143.828 610.844 143.09 610.934L136.9 611.681C128.907 612.646 122.605 619.057 121.657 627.188L120.922 633.486C120.835 634.236 119.764 634.236 119.676 633.486L118.942 627.188C117.993 619.057 111.691 612.646 103.699 611.681L97.5085 610.934C96.7706 610.844 96.7706 609.755 97.5085 609.666L103.699 608.919C111.691 607.954 117.993 601.543 118.942 593.411L119.676 587.114Z" fill="#FC198F"/>
<path d="M1798.31 587.114C1798.22 586.363 1797.15 586.363 1797.06 587.114L1796.33 593.411C1795.38 601.543 1789.08 607.954 1781.08 608.919L1774.89 609.666C1774.15 609.755 1774.15 610.844 1774.89 610.933L1781.08 611.681C1789.08 612.646 1795.38 619.057 1796.33 627.188L1797.06 633.486C1797.15 634.236 1798.22 634.236 1798.31 633.486L1799.04 627.188C1799.99 619.057 1806.29 612.646 1814.28 611.681L1820.47 610.934C1821.21 610.844 1821.21 609.755 1820.47 609.666L1814.28 608.919C1806.29 607.954 1799.99 601.543 1799.04 593.411L1798.31 587.114Z" fill="#FC198F"/>
<path d="M95.612 846.522C95.7638 845.222 97.6188 845.222 97.7706 846.522L99.0431 857.432C100.686 871.52 111.604 882.627 125.452 884.299L136.176 885.593C137.454 885.748 137.454 887.635 136.176 887.789L125.452 889.084C111.604 890.756 100.686 901.863 99.0431 915.95L97.7706 926.861C97.6188 928.161 95.7638 928.161 95.612 926.861L94.3396 915.95C92.6965 901.863 81.7786 890.756 67.9309 889.084L57.2068 887.789C55.9285 887.635 55.9285 885.748 57.2068 885.593L67.9309 884.299C81.7786 882.627 92.6965 871.52 94.3396 857.432L95.612 846.522Z" fill="#FC198F"/>
<path d="M1782.77 875.252C1781.47 875.062 1780.99 876.854 1782.21 877.337L1792.42 881.39C1805.6 886.623 1813.51 900.044 1811.54 913.852L1810.01 924.546C1809.83 925.821 1811.65 926.309 1812.13 925.114L1816.16 915.091C1821.36 902.148 1834.91 894.477 1848.94 896.536L1859.81 898.13C1861.11 898.32 1861.59 896.529 1860.37 896.045L1850.16 891.992C1836.98 886.759 1829.08 873.339 1831.05 859.53L1832.57 848.836C1832.75 847.562 1830.93 847.073 1830.45 848.268L1826.42 858.292C1821.22 871.235 1807.67 878.906 1793.64 876.847L1782.77 875.252Z" fill="#FC198F"/>
<path d="M238.835 821.631C239.748 821.497 240.086 822.76 239.229 823.1L232.035 825.956C222.747 829.643 217.178 839.1 218.566 848.829L219.641 856.364C219.769 857.263 218.484 857.607 218.146 856.765L215.309 849.702C211.646 840.582 202.095 835.177 192.208 836.628L184.55 837.751C183.637 837.885 183.299 836.623 184.156 836.282L191.35 833.426C200.638 829.739 206.207 820.283 204.819 810.553L203.745 803.018C203.616 802.12 204.901 801.776 205.239 802.617L208.076 809.68C211.739 818.8 221.29 824.205 231.178 822.755L238.835 821.631Z" fill="#FC198F"/>
<path d="M1678.75 836.283C1677.9 836.623 1678.23 837.885 1679.15 837.752L1686.8 836.628C1696.69 835.177 1706.24 840.582 1709.91 849.702L1712.74 856.765C1713.08 857.607 1714.37 857.263 1714.24 856.365L1713.16 848.83C1711.77 839.1 1717.34 829.644 1726.63 825.956L1733.83 823.1C1734.68 822.76 1734.34 821.497 1733.43 821.631L1725.77 822.755C1715.89 824.206 1706.34 818.801 1702.67 809.681L1699.84 802.618C1699.5 801.776 1698.21 802.12 1698.34 803.018L1699.42 810.553C1700.8 820.283 1695.23 829.739 1685.95 833.427L1678.75 836.283Z" fill="#FC198F"/>
<path d="M353.528 1039.09C354.386 1039.43 354.048 1040.69 353.135 1040.56L345.477 1039.43C335.589 1037.98 326.039 1043.39 322.376 1052.51L319.539 1059.57C319.201 1060.41 317.916 1060.07 318.044 1059.17L319.119 1051.64C320.507 1041.91 314.938 1032.45 305.649 1028.76L298.456 1025.91C297.598 1025.57 297.937 1024.3 298.85 1024.44L306.507 1025.56C316.395 1027.01 325.946 1021.61 329.609 1012.49L332.446 1005.42C332.784 1004.58 334.068 1004.93 333.94 1005.82L332.866 1013.36C331.478 1023.09 337.046 1032.54 346.335 1036.23L353.528 1039.09Z" fill="#FC198F"/>
<path d="M1563.69 1031.74C1562.77 1031.84 1562.77 1033.15 1563.69 1033.26L1571.37 1034.15C1581.3 1035.31 1589.13 1043 1590.31 1052.76L1591.22 1060.32C1591.33 1061.22 1592.66 1061.22 1592.76 1060.32L1593.68 1052.76C1594.85 1043 1602.68 1035.31 1612.61 1034.15L1620.3 1033.26C1621.21 1033.15 1621.21 1031.84 1620.3 1031.74L1612.61 1030.84C1602.68 1029.68 1594.85 1021.99 1593.68 1012.23L1592.76 1004.68C1592.66 1003.77 1591.33 1003.77 1591.22 1004.68L1590.31 1012.23C1589.13 1021.99 1581.3 1029.68 1571.37 1030.84L1563.69 1031.74Z" fill="#FC198F"/>
<path d="M1024.58 722C997.27 722 977.91 702.826 960 681.856C941.94 702.955 922.64 722 895.42 722C864.86 722 840 697.103 840 666.5C840 635.897 864.86 611 895.42 611C922.74 611 942.69 630.566 960 650.729C977.3 630.587 997.27 611 1024.58 611C1055.14 611 1080 635.897 1080 666.5C1080 697.103 1055.13 722 1024.58 722ZM973.11 666.298C989.32 685.441 1004.99 701.818 1024.58 701.818C1044.11 701.818 1060 685.986 1060 666.51C1060 647.045 1044.11 631.203 1024.58 631.203C1004.7 631.193 989.04 647.479 973.11 666.298ZM895.42 631.193C875.89 631.193 860 647.034 860 666.5C860 685.976 875.89 701.807 895.42 701.807C915.11 701.807 930.83 685.287 946.89 666.278C930.94 647.479 915.29 631.193 895.42 631.193Z" fill="#B6FE0D"/>
<path d="M596.015 831V852H606.815V849.6H598.565V831H596.015ZM607.726 831L605.926 837.9H607.576L610.576 831H607.726ZM613.773 845.7H625.563C625.583 845.58 625.593 845.46 625.593 845.34C625.593 845.22 625.593 845.1 625.593 844.98C625.593 843.52 625.323 842.27 624.783 841.23C624.243 840.17 623.483 839.35 622.503 838.77C621.523 838.19 620.383 837.9 619.083 837.9C617.903 837.9 616.833 838.14 615.873 838.62C614.933 839.1 614.163 839.77 613.563 840.63C612.963 841.49 612.563 842.49 612.363 843.63C612.323 843.87 612.293 844.11 612.273 844.35C612.253 844.59 612.243 844.84 612.243 845.1C612.243 846.48 612.523 847.72 613.083 848.82C613.663 849.9 614.443 850.75 615.423 851.37C616.423 851.99 617.543 852.3 618.783 852.3C619.983 852.3 620.983 852.16 621.783 851.88C622.583 851.58 623.263 851.17 623.823 850.65C624.383 850.11 624.893 849.49 625.353 848.79L623.403 847.56C623.103 848.06 622.743 848.5 622.323 848.88C621.903 849.24 621.423 849.53 620.883 849.75C620.363 849.95 619.763 850.05 619.083 850.05C618.183 850.05 617.403 849.86 616.743 849.48C616.083 849.1 615.573 848.54 615.213 847.8C614.853 847.06 614.673 846.16 614.673 845.1L614.733 844.2C614.733 843.34 614.923 842.6 615.303 841.98C615.703 841.34 616.233 840.85 616.893 840.51C617.553 840.17 618.283 840 619.083 840C619.883 840 620.553 840.16 621.093 840.48C621.653 840.78 622.083 841.21 622.383 841.77C622.703 842.31 622.903 842.94 622.983 843.66H613.773V845.7ZM623.883 831.3L621.633 830.1L617.133 834.9L618.483 835.8L623.883 831.3ZM639.233 858.6H641.633V838.2H639.233V858.6ZM627.683 845.1C627.683 846.58 627.993 847.86 628.613 848.94C629.233 850.02 630.063 850.85 631.103 851.43C632.143 852.01 633.283 852.3 634.523 852.3C635.683 852.3 636.693 852.01 637.553 851.43C638.413 850.85 639.083 850.02 639.563 848.94C640.063 847.86 640.313 846.58 640.313 845.1C640.313 843.6 640.063 842.32 639.563 841.26C639.083 840.18 638.413 839.35 637.553 838.77C636.693 838.19 635.683 837.9 634.523 837.9C633.283 837.9 632.143 838.19 631.103 838.77C630.063 839.35 629.233 840.18 628.613 841.26C627.993 842.32 627.683 843.6 627.683 845.1ZM630.113 845.1C630.113 844.04 630.323 843.14 630.743 842.4C631.183 841.66 631.763 841.1 632.483 840.72C633.203 840.34 633.983 840.15 634.823 840.15C635.523 840.15 636.213 840.34 636.893 840.72C637.573 841.1 638.133 841.66 638.573 842.4C639.013 843.14 639.233 844.04 639.233 845.1C639.233 846.16 639.013 847.06 638.573 847.8C638.133 848.54 637.573 849.1 636.893 849.48C636.213 849.86 635.523 850.05 634.823 850.05C633.983 850.05 633.203 849.86 632.483 849.48C631.763 849.1 631.183 848.54 630.743 847.8C630.323 847.06 630.113 846.16 630.113 845.1ZM648.392 846.6V838.2H645.992V846.9C645.992 848.54 646.422 849.85 647.282 850.83C648.142 851.81 649.292 852.3 650.732 852.3C651.652 852.3 652.452 852.1 653.132 851.7C653.812 851.28 654.382 850.66 654.842 849.84V852H657.242V838.2H654.842V846.6C654.842 847.28 654.692 847.88 654.392 848.4C654.112 848.92 653.702 849.33 653.162 849.63C652.642 849.91 652.032 850.05 651.332 850.05C650.372 850.05 649.642 849.75 649.142 849.15C648.642 848.55 648.392 847.7 648.392 846.6ZM661.754 832.5C661.754 832.94 661.914 833.33 662.234 833.67C662.574 833.99 662.964 834.15 663.404 834.15C663.864 834.15 664.254 833.99 664.574 833.67C664.894 833.33 665.054 832.94 665.054 832.5C665.054 832.04 664.894 831.65 664.574 831.33C664.254 831.01 663.864 830.85 663.404 830.85C662.964 830.85 662.574 831.01 662.234 831.33C661.914 831.65 661.754 832.04 661.754 832.5ZM662.204 838.2V852H664.604V838.2H662.204ZM671.797 858.6V838.2H669.397V858.6H671.797ZM683.347 845.1C683.347 843.6 683.037 842.32 682.417 841.26C681.797 840.18 680.967 839.35 679.927 838.77C678.907 838.19 677.767 837.9 676.507 837.9C675.367 837.9 674.357 838.19 673.477 838.77C672.617 839.35 671.937 840.18 671.437 841.26C670.957 842.32 670.717 843.6 670.717 845.1C670.717 846.58 670.957 847.86 671.437 848.94C671.937 850.02 672.617 850.85 673.477 851.43C674.357 852.01 675.367 852.3 676.507 852.3C677.767 852.3 678.907 852.01 679.927 851.43C680.967 850.85 681.797 850.02 682.417 848.94C683.037 847.86 683.347 846.58 683.347 845.1ZM680.917 845.1C680.917 846.16 680.697 847.06 680.257 847.8C679.837 848.54 679.267 849.1 678.547 849.48C677.847 849.86 677.067 850.05 676.207 850.05C675.507 850.05 674.817 849.86 674.137 849.48C673.457 849.1 672.897 848.54 672.457 847.8C672.017 847.06 671.797 846.16 671.797 845.1C671.797 844.04 672.017 843.14 672.457 842.4C672.897 841.66 673.457 841.1 674.137 840.72C674.817 840.34 675.507 840.15 676.207 840.15C677.067 840.15 677.847 840.34 678.547 840.72C679.267 841.1 679.837 841.66 680.257 842.4C680.697 843.14 680.917 844.04 680.917 845.1ZM691.996 852.3C693.476 852.3 694.756 852.01 695.836 851.43C696.936 850.83 697.846 849.95 698.566 848.79L696.616 847.56C696.116 848.4 695.506 849.03 694.786 849.45C694.066 849.85 693.236 850.05 692.296 850.05C691.356 850.05 690.556 849.85 689.896 849.45C689.236 849.05 688.736 848.47 688.396 847.71C688.056 846.95 687.886 846.03 687.886 844.95C687.906 843.89 688.086 843 688.426 842.28C688.786 841.54 689.286 840.98 689.926 840.6C690.586 840.2 691.376 840 692.296 840C693.076 840 693.756 840.17 694.336 840.51C694.916 840.85 695.366 841.32 695.686 841.92C696.026 842.52 696.196 843.23 696.196 844.05C696.196 844.19 696.166 844.37 696.106 844.59C696.046 844.79 695.986 844.94 695.926 845.04L696.886 843.66H686.986V845.7H698.776C698.776 845.66 698.776 845.57 698.776 845.43C698.796 845.27 698.806 845.12 698.806 844.98C698.806 843.52 698.546 842.26 698.026 841.2C697.506 840.14 696.756 839.33 695.776 838.77C694.816 838.19 693.656 837.9 692.296 837.9C690.936 837.9 689.736 838.2 688.696 838.8C687.676 839.4 686.876 840.24 686.296 841.32C685.736 842.4 685.456 843.66 685.456 845.1C685.456 846.52 685.726 847.77 686.266 848.85C686.826 849.93 687.596 850.78 688.576 851.4C689.576 852 690.716 852.3 691.996 852.3ZM709.89 845.1C709.89 846.48 710.2 847.72 710.82 848.82C711.46 849.9 712.32 850.75 713.4 851.37C714.48 851.99 715.69 852.3 717.03 852.3C718.39 852.3 719.6 851.99 720.66 851.37C721.74 850.75 722.59 849.9 723.21 848.82C723.85 847.72 724.17 846.48 724.17 845.1C724.17 843.7 723.85 842.46 723.21 841.38C722.59 840.3 721.74 839.45 720.66 838.83C719.6 838.21 718.39 837.9 717.03 837.9C715.69 837.9 714.48 838.21 713.4 838.83C712.32 839.45 711.46 840.3 710.82 841.38C710.2 842.46 709.89 843.7 709.89 845.1ZM712.32 845.1C712.32 844.14 712.52 843.29 712.92 842.55C713.34 841.79 713.9 841.2 714.6 840.78C715.32 840.36 716.13 840.15 717.03 840.15C717.93 840.15 718.73 840.36 719.43 840.78C720.15 841.2 720.71 841.79 721.11 842.55C721.53 843.29 721.74 844.14 721.74 845.1C721.74 846.06 721.53 846.91 721.11 847.65C720.71 848.39 720.15 848.98 719.43 849.42C718.73 849.84 717.93 850.05 717.03 850.05C716.13 850.05 715.32 849.84 714.6 849.42C713.9 848.98 713.34 848.39 712.92 847.65C712.52 846.91 712.32 846.06 712.32 845.1ZM746.367 843.3C746.367 842.16 746.187 841.19 745.827 840.39C745.487 839.57 744.987 838.95 744.327 838.53C743.667 838.11 742.867 837.9 741.927 837.9C741.007 837.9 740.187 838.12 739.467 838.56C738.747 838.98 738.147 839.62 737.667 840.48C737.347 839.66 736.837 839.03 736.137 838.59C735.457 838.13 734.637 837.9 733.677 837.9C732.817 837.9 732.067 838.09 731.427 838.47C730.807 838.85 730.287 839.43 729.867 840.21V838.2H727.467V852H729.867V843.6C729.867 842.88 729.997 842.26 730.257 841.74C730.517 841.22 730.887 840.83 731.367 840.57C731.847 840.29 732.417 840.15 733.077 840.15C733.977 840.15 734.637 840.43 735.057 840.99C735.497 841.55 735.717 842.42 735.717 843.6V852H738.117V843.6C738.117 842.88 738.247 842.26 738.507 841.74C738.767 841.22 739.137 840.83 739.617 840.57C740.097 840.29 740.667 840.15 741.327 840.15C742.227 840.15 742.887 840.43 743.307 840.99C743.747 841.55 743.967 842.42 743.967 843.6V852H746.367V843.3ZM751.445 847.77L749.555 848.94C749.815 849.48 750.195 850.01 750.695 850.53C751.215 851.05 751.845 851.48 752.585 851.82C753.325 852.14 754.155 852.3 755.075 852.3C756.495 852.3 757.635 851.9 758.495 851.1C759.375 850.3 759.815 849.3 759.815 848.1C759.815 847.28 759.615 846.61 759.215 846.09C758.835 845.57 758.315 845.13 757.655 844.77C756.995 844.39 756.265 844.04 755.465 843.72C754.985 843.52 754.525 843.31 754.085 843.09C753.645 842.87 753.285 842.62 753.005 842.34C752.725 842.06 752.585 841.74 752.585 841.38C752.585 840.92 752.765 840.58 753.125 840.36C753.485 840.14 753.915 840.03 754.415 840.03C755.135 840.03 755.775 840.2 756.335 840.54C756.915 840.88 757.395 841.31 757.775 841.83L759.695 840.6C759.415 840.08 759.025 839.62 758.525 839.22C758.025 838.82 757.445 838.5 756.785 838.26C756.145 838.02 755.455 837.9 754.715 837.9C753.975 837.9 753.255 838.03 752.555 838.29C751.875 838.55 751.315 838.95 750.875 839.49C750.455 840.03 750.245 840.71 750.245 841.53C750.245 842.33 750.445 843 750.845 843.54C751.265 844.06 751.775 844.49 752.375 844.83C752.995 845.15 753.605 845.43 754.205 845.67C754.745 845.87 755.255 846.09 755.735 846.33C756.215 846.55 756.605 846.83 756.905 847.17C757.225 847.49 757.385 847.89 757.385 848.37C757.385 848.91 757.185 849.34 756.785 849.66C756.405 849.96 755.875 850.11 755.195 850.11C754.635 850.11 754.115 850.01 753.635 849.81C753.175 849.59 752.765 849.3 752.405 848.94C752.045 848.58 751.725 848.19 751.445 847.77ZM762.975 832.5C762.975 832.94 763.135 833.33 763.455 833.67C763.795 833.99 764.185 834.15 764.625 834.15C765.085 834.15 765.475 833.99 765.795 833.67C766.115 833.33 766.275 832.94 766.275 832.5C766.275 832.04 766.115 831.65 765.795 831.33C765.475 831.01 765.085 830.85 764.625 830.85C764.185 830.85 763.795 831.01 763.455 831.33C763.135 831.65 762.975 832.04 762.975 832.5ZM763.425 838.2V852H765.825V838.2H763.425ZM771.338 847.77L769.448 848.94C769.708 849.48 770.088 850.01 770.588 850.53C771.108 851.05 771.738 851.48 772.478 851.82C773.218 852.14 774.048 852.3 774.968 852.3C776.388 852.3 777.528 851.9 778.388 851.1C779.268 850.3 779.708 849.3 779.708 848.1C779.708 847.28 779.508 846.61 779.108 846.09C778.728 845.57 778.208 845.13 777.548 844.77C776.888 844.39 776.158 844.04 775.358 843.72C774.878 843.52 774.418 843.31 773.978 843.09C773.538 842.87 773.178 842.62 772.898 842.34C772.618 842.06 772.478 841.74 772.478 841.38C772.478 840.92 772.658 840.58 773.018 840.36C773.378 840.14 773.808 840.03 774.308 840.03C775.028 840.03 775.668 840.2 776.228 840.54C776.808 840.88 777.288 841.31 777.668 841.83L779.588 840.6C779.308 840.08 778.918 839.62 778.418 839.22C777.918 838.82 777.338 838.5 776.678 838.26C776.038 838.02 775.348 837.9 774.608 837.9C773.868 837.9 773.148 838.03 772.448 838.29C771.768 838.55 771.208 838.95 770.768 839.49C770.348 840.03 770.138 840.71 770.138 841.53C770.138 842.33 770.338 843 770.738 843.54C771.158 844.06 771.668 844.49 772.268 844.83C772.888 845.15 773.498 845.43 774.098 845.67C774.638 845.87 775.148 846.09 775.628 846.33C776.108 846.55 776.498 846.83 776.798 847.17C777.118 847.49 777.278 847.89 777.278 848.37C777.278 848.91 777.078 849.34 776.678 849.66C776.298 849.96 775.768 850.11 775.088 850.11C774.528 850.11 774.008 850.01 773.528 849.81C773.068 849.59 772.658 849.3 772.298 848.94C771.938 848.58 771.618 848.19 771.338 847.77ZM780.767 838.2V840.45H787.667V838.2H780.767ZM783.017 833.4V852H785.417V833.4H783.017ZM792.474 846.6V838.2H790.074V846.9C790.074 848.54 790.504 849.85 791.364 850.83C792.224 851.81 793.374 852.3 794.814 852.3C795.734 852.3 796.534 852.1 797.214 851.7C797.894 851.28 798.464 850.66 798.924 849.84V852H801.324V838.2H798.924V846.6C798.924 847.28 798.774 847.88 798.474 848.4C798.194 848.92 797.784 849.33 797.244 849.63C796.724 849.91 796.114 850.05 795.414 850.05C794.454 850.05 793.724 849.75 793.224 849.15C792.724 848.55 792.474 847.7 792.474 846.6ZM804.786 838.2V840.45H811.686V838.2H804.786ZM811.446 831.48L812.766 829.5C812.626 829.3 812.426 829.11 812.166 828.93C811.926 828.75 811.636 828.6 811.296 828.48C810.956 828.36 810.566 828.3 810.126 828.3C809.286 828.3 808.566 828.48 807.966 828.84C807.386 829.18 806.936 829.7 806.616 830.4C806.296 831.1 806.136 832 806.136 833.1V852H808.536V833.4C808.536 832.74 808.596 832.21 808.716 831.81C808.836 831.41 808.996 831.13 809.196 830.97C809.416 830.79 809.676 830.7 809.976 830.7C810.216 830.7 810.466 830.75 810.726 830.85C811.006 830.93 811.246 831.14 811.446 831.48ZM813.37 838.2V840.45H820.27V838.2H813.37ZM820.03 831.48L821.35 829.5C821.21 829.3 821.01 829.11 820.75 828.93C820.51 828.75 820.22 828.6 819.88 828.48C819.54 828.36 819.15 828.3 818.71 828.3C817.87 828.3 817.15 828.48 816.55 828.84C815.97 829.18 815.52 829.7 815.2 830.4C814.88 831.1 814.72 832 814.72 833.1V852H817.12V833.4C817.12 832.74 817.18 832.21 817.3 831.81C817.42 831.41 817.58 831.13 817.78 830.97C818 830.79 818.26 830.7 818.56 830.7C818.8 830.7 819.05 830.75 819.31 830.85C819.59 830.93 819.83 831.14 820.03 831.48ZM829.748 838.2L836.348 853.05L842.948 838.2H840.248L836.348 847.95L832.448 838.2H829.748ZM843.571 845.1C843.571 846.48 843.881 847.72 844.501 848.82C845.141 849.9 846.001 850.75 847.081 851.37C848.161 851.99 849.371 852.3 850.711 852.3C852.071 852.3 853.281 851.99 854.341 851.37C855.421 850.75 856.271 849.9 856.891 848.82C857.531 847.72 857.851 846.48 857.851 845.1C857.851 843.7 857.531 842.46 856.891 841.38C856.271 840.3 855.421 839.45 854.341 838.83C853.281 838.21 852.071 837.9 850.711 837.9C849.371 837.9 848.161 838.21 847.081 838.83C846.001 839.45 845.141 840.3 844.501 841.38C843.881 842.46 843.571 843.7 843.571 845.1ZM846.001 845.1C846.001 844.14 846.201 843.29 846.601 842.55C847.021 841.79 847.581 841.2 848.281 840.78C849.001 840.36 849.811 840.15 850.711 840.15C851.611 840.15 852.411 840.36 853.111 840.78C853.831 841.2 854.391 841.79 854.791 842.55C855.211 843.29 855.421 844.14 855.421 845.1C855.421 846.06 855.211 846.91 854.791 847.65C854.391 848.39 853.831 848.98 853.111 849.42C852.411 849.84 851.611 850.05 850.711 850.05C849.811 850.05 849.001 849.84 848.281 849.42C847.581 848.98 847.021 848.39 846.601 847.65C846.201 846.91 846.001 846.06 846.001 845.1ZM863.548 846.6V838.2H861.148V846.9C861.148 848.54 861.578 849.85 862.438 850.83C863.298 851.81 864.448 852.3 865.888 852.3C866.808 852.3 867.608 852.1 868.288 851.7C868.968 851.28 869.538 850.66 869.998 849.84V852H872.398V838.2H869.998V846.6C869.998 847.28 869.848 847.88 869.548 848.4C869.268 848.92 868.858 849.33 868.318 849.63C867.798 849.91 867.188 850.05 866.488 850.05C865.528 850.05 864.798 849.75 864.298 849.15C863.798 848.55 863.548 847.7 863.548 846.6ZM877.48 847.77L875.59 848.94C875.85 849.48 876.23 850.01 876.73 850.53C877.25 851.05 877.88 851.48 878.62 851.82C879.36 852.14 880.19 852.3 881.11 852.3C882.53 852.3 883.67 851.9 884.53 851.1C885.41 850.3 885.85 849.3 885.85 848.1C885.85 847.28 885.65 846.61 885.25 846.09C884.87 845.57 884.35 845.13 883.69 844.77C883.03 844.39 882.3 844.04 881.5 843.72C881.02 843.52 880.56 843.31 880.12 843.09C879.68 842.87 879.32 842.62 879.04 842.34C878.76 842.06 878.62 841.74 878.62 841.38C878.62 840.92 878.8 840.58 879.16 840.36C879.52 840.14 879.95 840.03 880.45 840.03C881.17 840.03 881.81 840.2 882.37 840.54C882.95 840.88 883.43 841.31 883.81 841.83L885.73 840.6C885.45 840.08 885.06 839.62 884.56 839.22C884.06 838.82 883.48 838.5 882.82 838.26C882.18 838.02 881.49 837.9 880.75 837.9C880.01 837.9 879.29 838.03 878.59 838.29C877.91 838.55 877.35 838.95 876.91 839.49C876.49 840.03 876.28 840.71 876.28 841.53C876.28 842.33 876.48 843 876.88 843.54C877.3 844.06 877.81 844.49 878.41 844.83C879.03 845.15 879.64 845.43 880.24 845.67C880.78 845.87 881.29 846.09 881.77 846.33C882.25 846.55 882.64 846.83 882.94 847.17C883.26 847.49 883.42 847.89 883.42 848.37C883.42 848.91 883.22 849.34 882.82 849.66C882.44 849.96 881.91 850.11 881.23 850.11C880.67 850.11 880.15 850.01 879.67 849.81C879.21 849.59 878.8 849.3 878.44 848.94C878.08 848.58 877.76 848.19 877.48 847.77ZM898.574 847.77L896.684 848.94C896.944 849.48 897.324 850.01 897.824 850.53C898.344 851.05 898.974 851.48 899.714 851.82C900.454 852.14 901.284 852.3 902.204 852.3C903.624 852.3 904.764 851.9 905.624 851.1C906.504 850.3 906.944 849.3 906.944 848.1C906.944 847.28 906.744 846.61 906.344 846.09C905.964 845.57 905.444 845.13 904.784 844.77C904.124 844.39 903.394 844.04 902.594 843.72C902.114 843.52 901.654 843.31 901.214 843.09C900.774 842.87 900.414 842.62 900.134 842.34C899.854 842.06 899.714 841.74 899.714 841.38C899.714 840.92 899.894 840.58 900.254 840.36C900.614 840.14 901.044 840.03 901.544 840.03C902.264 840.03 902.904 840.2 903.464 840.54C904.044 840.88 904.524 841.31 904.904 841.83L906.824 840.6C906.544 840.08 906.154 839.62 905.654 839.22C905.154 838.82 904.574 838.5 903.914 838.26C903.274 838.02 902.584 837.9 901.844 837.9C901.104 837.9 900.384 838.03 899.684 838.29C899.004 838.55 898.444 838.95 898.004 839.49C897.584 840.03 897.374 840.71 897.374 841.53C897.374 842.33 897.574 843 897.974 843.54C898.394 844.06 898.904 844.49 899.504 844.83C900.124 845.15 900.734 845.43 901.334 845.67C901.874 845.87 902.384 846.09 902.864 846.33C903.344 846.55 903.734 846.83 904.034 847.17C904.354 847.49 904.514 847.89 904.514 848.37C904.514 848.91 904.314 849.34 903.914 849.66C903.534 849.96 903.004 850.11 902.324 850.11C901.764 850.11 901.244 850.01 900.764 849.81C900.304 849.59 899.894 849.3 899.534 848.94C899.174 848.58 898.854 848.19 898.574 847.77ZM908.904 845.1C908.904 846.48 909.214 847.72 909.834 848.82C910.474 849.9 911.334 850.75 912.414 851.37C913.494 851.99 914.704 852.3 916.044 852.3C917.404 852.3 918.614 851.99 919.674 851.37C920.754 850.75 921.604 849.9 922.224 848.82C922.864 847.72 923.184 846.48 923.184 845.1C923.184 843.7 922.864 842.46 922.224 841.38C921.604 840.3 920.754 839.45 919.674 838.83C918.614 838.21 917.404 837.9 916.044 837.9C914.704 837.9 913.494 838.21 912.414 838.83C911.334 839.45 910.474 840.3 909.834 841.38C909.214 842.46 908.904 843.7 908.904 845.1ZM911.334 845.1C911.334 844.14 911.534 843.29 911.934 842.55C912.354 841.79 912.914 841.2 913.614 840.78C914.334 840.36 915.144 840.15 916.044 840.15C916.944 840.15 917.744 840.36 918.444 840.78C919.164 841.2 919.724 841.79 920.124 842.55C920.544 843.29 920.754 844.14 920.754 845.1C920.754 846.06 920.544 846.91 920.124 847.65C919.724 848.39 919.164 848.98 918.444 849.42C917.744 849.84 916.944 850.05 916.044 850.05C915.144 850.05 914.334 849.84 913.614 849.42C912.914 848.98 912.354 848.39 911.934 847.65C911.534 846.91 911.334 846.06 911.334 845.1ZM928.88 846.6V838.2H926.48V846.9C926.48 848.54 926.91 849.85 927.77 850.83C928.63 851.81 929.78 852.3 931.22 852.3C932.14 852.3 932.94 852.1 933.62 851.7C934.3 851.28 934.87 850.66 935.33 849.84V852H937.73V838.2H935.33V846.6C935.33 847.28 935.18 847.88 934.88 848.4C934.6 848.92 934.19 849.33 933.65 849.63C933.13 849.91 932.52 850.05 931.82 850.05C930.86 850.05 930.13 849.75 929.63 849.15C929.13 848.55 928.88 847.7 928.88 846.6ZM944.642 828.6H942.242V852H944.642V828.6ZM951.092 843.6V852H953.492V843.3C953.492 842.1 953.292 841.1 952.892 840.3C952.512 839.5 951.962 838.9 951.242 838.5C950.542 838.1 949.712 837.9 948.752 837.9C947.792 837.9 946.942 838.15 946.202 838.65C945.482 839.15 944.912 839.83 944.492 840.69C944.072 841.53 943.862 842.5 943.862 843.6H944.642C944.642 842.94 944.782 842.35 945.062 841.83C945.362 841.31 945.772 840.9 946.292 840.6C946.832 840.3 947.452 840.15 948.152 840.15C949.132 840.15 949.862 840.44 950.342 841.02C950.842 841.6 951.092 842.46 951.092 843.6ZM959.084 847.74C959.084 847.24 959.204 846.81 959.444 846.45C959.684 846.09 960.044 845.81 960.524 845.61C961.024 845.41 961.664 845.31 962.444 845.31C963.284 845.31 964.074 845.42 964.814 845.64C965.554 845.84 966.274 846.18 966.974 846.66V845.25C966.834 845.07 966.564 844.84 966.164 844.56C965.764 844.26 965.224 844 964.544 843.78C963.884 843.54 963.054 843.42 962.054 843.42C960.354 843.42 959.024 843.83 958.064 844.65C957.124 845.45 956.654 846.52 956.654 847.86C956.654 848.8 956.874 849.6 957.314 850.26C957.754 850.92 958.334 851.43 959.054 851.79C959.794 852.13 960.584 852.3 961.424 852.3C962.184 852.3 962.944 852.16 963.704 851.88C964.484 851.6 965.134 851.17 965.654 850.59C966.194 850.01 966.464 849.28 966.464 848.4L965.984 846.6C965.984 847.32 965.804 847.96 965.444 848.52C965.104 849.06 964.634 849.48 964.034 849.78C963.454 850.08 962.794 850.23 962.054 850.23C961.474 850.23 960.954 850.14 960.494 849.96C960.054 849.76 959.704 849.47 959.444 849.09C959.204 848.71 959.084 848.26 959.084 847.74ZM958.724 841.38C958.944 841.22 959.244 841.03 959.624 840.81C960.004 840.59 960.464 840.4 961.004 840.24C961.564 840.08 962.184 840 962.864 840C963.284 840 963.684 840.04 964.064 840.12C964.444 840.2 964.774 840.33 965.054 840.51C965.354 840.69 965.584 840.94 965.744 841.26C965.904 841.56 965.984 841.95 965.984 842.43V852H968.384V842.1C968.384 841.2 968.154 840.44 967.694 839.82C967.254 839.2 966.624 838.73 965.804 838.41C965.004 838.07 964.064 837.9 962.984 837.9C961.704 837.9 960.604 838.09 959.684 838.47C958.784 838.85 958.074 839.23 957.554 839.61L958.724 841.38ZM972.447 832.5C972.447 832.94 972.607 833.33 972.927 833.67C973.267 833.99 973.657 834.15 974.097 834.15C974.557 834.15 974.947 833.99 975.267 833.67C975.587 833.33 975.747 832.94 975.747 832.5C975.747 832.04 975.587 831.65 975.267 831.33C974.947 831.01 974.557 830.85 974.097 830.85C973.657 830.85 973.267 831.01 972.927 831.33C972.607 831.65 972.447 832.04 972.447 832.5ZM972.897 838.2V852H975.297V838.2H972.897ZM978.14 838.2V840.45H985.04V838.2H978.14ZM980.39 833.4V852H982.79V833.4H980.39ZM992.787 852.3C994.267 852.3 995.547 852.01 996.627 851.43C997.727 850.83 998.637 849.95 999.357 848.79L997.407 847.56C996.907 848.4 996.297 849.03 995.577 849.45C994.857 849.85 994.027 850.05 993.087 850.05C992.147 850.05 991.347 849.85 990.687 849.45C990.027 849.05 989.527 848.47 989.187 847.71C988.847 846.95 988.677 846.03 988.677 844.95C988.697 843.89 988.877 843 989.217 842.28C989.577 841.54 990.077 840.98 990.717 840.6C991.377 840.2 992.167 840 993.087 840C993.867 840 994.547 840.17 995.127 840.51C995.707 840.85 996.157 841.32 996.477 841.92C996.817 842.52 996.987 843.23 996.987 844.05C996.987 844.19 996.957 844.37 996.897 844.59C996.837 844.79 996.777 844.94 996.717 845.04L997.677 843.66H987.777V845.7H999.567C999.567 845.66 999.567 845.57 999.567 845.43C999.587 845.27 999.597 845.12 999.597 844.98C999.597 843.52 999.337 842.26 998.817 841.2C998.297 840.14 997.547 839.33 996.567 838.77C995.607 838.19 994.447 837.9 993.087 837.9C991.727 837.9 990.527 838.2 989.487 838.8C988.467 839.4 987.667 840.24 987.087 841.32C986.527 842.4 986.247 843.66 986.247 845.1C986.247 846.52 986.517 847.77 987.057 848.85C987.617 849.93 988.387 850.78 989.367 851.4C990.367 852 991.507 852.3 992.787 852.3ZM1014.28 846.6V838.2H1011.88V846.9C1011.88 848.54 1012.31 849.85 1013.17 850.83C1014.03 851.81 1015.18 852.3 1016.62 852.3C1017.54 852.3 1018.34 852.1 1019.02 851.7C1019.7 851.28 1020.27 850.66 1020.73 849.84V852H1023.13V838.2H1020.73V846.6C1020.73 847.28 1020.58 847.88 1020.28 848.4C1020 848.92 1019.59 849.33 1019.05 849.63C1018.53 849.91 1017.92 850.05 1017.22 850.05C1016.26 850.05 1015.53 849.75 1015.03 849.15C1014.53 848.55 1014.28 847.7 1014.28 846.6ZM1036.49 843.6V852H1038.89V843.3C1038.89 841.64 1038.46 840.33 1037.6 839.37C1036.76 838.39 1035.61 837.9 1034.15 837.9C1033.25 837.9 1032.45 838.1 1031.75 838.5C1031.07 838.9 1030.5 839.52 1030.04 840.36V838.2H1027.64V852H1030.04V843.6C1030.04 842.92 1030.18 842.32 1030.46 841.8C1030.76 841.28 1031.17 840.88 1031.69 840.6C1032.23 840.3 1032.85 840.15 1033.55 840.15C1034.51 840.15 1035.24 840.44 1035.74 841.02C1036.24 841.6 1036.49 842.46 1036.49 843.6ZM1048.74 852.3C1050.22 852.3 1051.5 852.01 1052.58 851.43C1053.68 850.83 1054.59 849.95 1055.31 848.79L1053.36 847.56C1052.86 848.4 1052.25 849.03 1051.53 849.45C1050.81 849.85 1049.98 850.05 1049.04 850.05C1048.1 850.05 1047.3 849.85 1046.64 849.45C1045.98 849.05 1045.48 848.47 1045.14 847.71C1044.8 846.95 1044.63 846.03 1044.63 844.95C1044.65 843.89 1044.83 843 1045.17 842.28C1045.53 841.54 1046.03 840.98 1046.67 840.6C1047.33 840.2 1048.12 840 1049.04 840C1049.82 840 1050.5 840.17 1051.08 840.51C1051.66 840.85 1052.11 841.32 1052.43 841.92C1052.77 842.52 1052.94 843.23 1052.94 844.05C1052.94 844.19 1052.91 844.37 1052.85 844.59C1052.79 844.79 1052.73 844.94 1052.67 845.04L1053.63 843.66H1043.73V845.7H1055.52C1055.52 845.66 1055.52 845.57 1055.52 845.43C1055.54 845.27 1055.55 845.12 1055.55 844.98C1055.55 843.52 1055.29 842.26 1054.77 841.2C1054.25 840.14 1053.5 839.33 1052.52 838.77C1051.56 838.19 1050.4 837.9 1049.04 837.9C1047.68 837.9 1046.48 838.2 1045.44 838.8C1044.42 839.4 1043.62 840.24 1043.04 841.32C1042.48 842.4 1042.2 843.66 1042.2 845.1C1042.2 846.52 1042.47 847.77 1043.01 848.85C1043.57 849.93 1044.34 850.78 1045.32 851.4C1046.32 852 1047.46 852.3 1048.74 852.3ZM1070.09 828.6H1067.69V852H1070.09V828.6ZM1081.64 845.1C1081.64 843.6 1081.33 842.32 1080.71 841.26C1080.09 840.18 1079.26 839.35 1078.22 838.77C1077.2 838.19 1076.06 837.9 1074.8 837.9C1073.66 837.9 1072.65 838.19 1071.77 838.77C1070.91 839.35 1070.23 840.18 1069.73 841.26C1069.25 842.32 1069.01 843.6 1069.01 845.1C1069.01 846.58 1069.25 847.86 1069.73 848.94C1070.23 850.02 1070.91 850.85 1071.77 851.43C1072.65 852.01 1073.66 852.3 1074.8 852.3C1076.06 852.3 1077.2 852.01 1078.22 851.43C1079.26 850.85 1080.09 850.02 1080.71 848.94C1081.33 847.86 1081.64 846.58 1081.64 845.1ZM1079.21 845.1C1079.21 846.16 1078.99 847.06 1078.55 847.8C1078.13 848.54 1077.56 849.1 1076.84 849.48C1076.14 849.86 1075.36 850.05 1074.5 850.05C1073.8 850.05 1073.11 849.86 1072.43 849.48C1071.75 849.1 1071.19 848.54 1070.75 847.8C1070.31 847.06 1070.09 846.16 1070.09 845.1C1070.09 844.04 1070.31 843.14 1070.75 842.4C1071.19 841.66 1071.75 841.1 1072.43 840.72C1073.11 840.34 1073.8 840.15 1074.5 840.15C1075.36 840.15 1076.14 840.34 1076.84 840.72C1077.56 841.1 1078.13 841.66 1078.55 842.4C1078.99 843.14 1079.21 844.04 1079.21 845.1ZM1083.75 845.1C1083.75 846.48 1084.06 847.72 1084.68 848.82C1085.32 849.9 1086.18 850.75 1087.26 851.37C1088.34 851.99 1089.55 852.3 1090.89 852.3C1092.25 852.3 1093.46 851.99 1094.52 851.37C1095.6 850.75 1096.45 849.9 1097.07 848.82C1097.71 847.72 1098.03 846.48 1098.03 845.1C1098.03 843.7 1097.71 842.46 1097.07 841.38C1096.45 840.3 1095.6 839.45 1094.52 838.83C1093.46 838.21 1092.25 837.9 1090.89 837.9C1089.55 837.9 1088.34 838.21 1087.26 838.83C1086.18 839.45 1085.32 840.3 1084.68 841.38C1084.06 842.46 1083.75 843.7 1083.75 845.1ZM1086.18 845.1C1086.18 844.14 1086.38 843.29 1086.78 842.55C1087.2 841.79 1087.76 841.2 1088.46 840.78C1089.18 840.36 1089.99 840.15 1090.89 840.15C1091.79 840.15 1092.59 840.36 1093.29 840.78C1094.01 841.2 1094.57 841.79 1094.97 842.55C1095.39 843.29 1095.6 844.14 1095.6 845.1C1095.6 846.06 1095.39 846.91 1094.97 847.65C1094.57 848.39 1094.01 848.98 1093.29 849.42C1092.59 849.84 1091.79 850.05 1090.89 850.05C1089.99 850.05 1089.18 849.84 1088.46 849.42C1087.76 848.98 1087.2 848.39 1086.78 847.65C1086.38 846.91 1086.18 846.06 1086.18 845.1ZM1110.17 843.6V852H1112.57V843.3C1112.57 841.64 1112.14 840.33 1111.28 839.37C1110.44 838.39 1109.29 837.9 1107.83 837.9C1106.93 837.9 1106.13 838.1 1105.43 838.5C1104.75 838.9 1104.18 839.52 1103.72 840.36V838.2H1101.32V852H1103.72V843.6C1103.72 842.92 1103.86 842.32 1104.14 841.8C1104.44 841.28 1104.85 840.88 1105.37 840.6C1105.91 840.3 1106.53 840.15 1107.23 840.15C1108.19 840.15 1108.92 840.44 1109.42 841.02C1109.92 841.6 1110.17 842.46 1110.17 843.6ZM1125.94 843.6V852H1128.34V843.3C1128.34 841.64 1127.91 840.33 1127.05 839.37C1126.21 838.39 1125.06 837.9 1123.6 837.9C1122.7 837.9 1121.9 838.1 1121.2 838.5C1120.52 838.9 1119.95 839.52 1119.49 840.36V838.2H1117.09V852H1119.49V843.6C1119.49 842.92 1119.63 842.32 1119.91 841.8C1120.21 841.28 1120.62 840.88 1121.14 840.6C1121.68 840.3 1122.3 840.15 1123 840.15C1123.96 840.15 1124.69 840.44 1125.19 841.02C1125.69 841.6 1125.94 842.46 1125.94 843.6ZM1138.19 852.3C1139.67 852.3 1140.95 852.01 1142.03 851.43C1143.13 850.83 1144.04 849.95 1144.76 848.79L1142.81 847.56C1142.31 848.4 1141.7 849.03 1140.98 849.45C1140.26 849.85 1139.43 850.05 1138.49 850.05C1137.55 850.05 1136.75 849.85 1136.09 849.45C1135.43 849.05 1134.93 848.47 1134.59 847.71C1134.25 846.95 1134.08 846.03 1134.08 844.95C1134.1 843.89 1134.28 843 1134.62 842.28C1134.98 841.54 1135.48 840.98 1136.12 840.6C1136.78 840.2 1137.57 840 1138.49 840C1139.27 840 1139.95 840.17 1140.53 840.51C1141.11 840.85 1141.56 841.32 1141.88 841.92C1142.22 842.52 1142.39 843.23 1142.39 844.05C1142.39 844.19 1142.36 844.37 1142.3 844.59C1142.24 844.79 1142.18 844.94 1142.12 845.04L1143.08 843.66H1133.18V845.7H1144.97C1144.97 845.66 1144.97 845.57 1144.97 845.43C1144.99 845.27 1145 845.12 1145 844.98C1145 843.52 1144.74 842.26 1144.22 841.2C1143.7 840.14 1142.95 839.33 1141.97 838.77C1141.01 838.19 1139.85 837.9 1138.49 837.9C1137.13 837.9 1135.93 838.2 1134.89 838.8C1133.87 839.4 1133.07 840.24 1132.49 841.32C1131.93 842.4 1131.65 843.66 1131.65 845.1C1131.65 846.52 1131.92 847.77 1132.46 848.85C1133.02 849.93 1133.79 850.78 1134.77 851.4C1135.77 852 1136.91 852.3 1138.19 852.3ZM1158.36 847.74C1158.36 847.24 1158.48 846.81 1158.72 846.45C1158.96 846.09 1159.32 845.81 1159.8 845.61C1160.3 845.41 1160.94 845.31 1161.72 845.31C1162.56 845.31 1163.35 845.42 1164.09 845.64C1164.83 845.84 1165.55 846.18 1166.25 846.66V845.25C1166.11 845.07 1165.84 844.84 1165.44 844.56C1165.04 844.26 1164.5 844 1163.82 843.78C1163.16 843.54 1162.33 843.42 1161.33 843.42C1159.63 843.42 1158.3 843.83 1157.34 844.65C1156.4 845.45 1155.93 846.52 1155.93 847.86C1155.93 848.8 1156.15 849.6 1156.59 850.26C1157.03 850.92 1157.61 851.43 1158.33 851.79C1159.07 852.13 1159.86 852.3 1160.7 852.3C1161.46 852.3 1162.22 852.16 1162.98 851.88C1163.76 851.6 1164.41 851.17 1164.93 850.59C1165.47 850.01 1165.74 849.28 1165.74 848.4L1165.26 846.6C1165.26 847.32 1165.08 847.96 1164.72 848.52C1164.38 849.06 1163.91 849.48 1163.31 849.78C1162.73 850.08 1162.07 850.23 1161.33 850.23C1160.75 850.23 1160.23 850.14 1159.77 849.96C1159.33 849.76 1158.98 849.47 1158.72 849.09C1158.48 848.71 1158.36 848.26 1158.36 847.74ZM1158 841.38C1158.22 841.22 1158.52 841.03 1158.9 840.81C1159.28 840.59 1159.74 840.4 1160.28 840.24C1160.84 840.08 1161.46 840 1162.14 840C1162.56 840 1162.96 840.04 1163.34 840.12C1163.72 840.2 1164.05 840.33 1164.33 840.51C1164.63 840.69 1164.86 840.94 1165.02 841.26C1165.18 841.56 1165.26 841.95 1165.26 842.43V852H1167.66V842.1C1167.66 841.2 1167.43 840.44 1166.97 839.82C1166.53 839.2 1165.9 838.73 1165.08 838.41C1164.28 838.07 1163.34 837.9 1162.26 837.9C1160.98 837.9 1159.88 838.09 1158.96 838.47C1158.06 838.85 1157.35 839.23 1156.83 839.61L1158 841.38ZM1180.57 843.6V852H1182.97V843.3C1182.97 841.64 1182.54 840.33 1181.68 839.37C1180.84 838.39 1179.69 837.9 1178.23 837.9C1177.33 837.9 1176.53 838.1 1175.83 838.5C1175.15 838.9 1174.58 839.52 1174.12 840.36V838.2H1171.72V852H1174.12V843.6C1174.12 842.92 1174.26 842.32 1174.54 841.8C1174.84 841.28 1175.25 840.88 1175.77 840.6C1176.31 840.3 1176.93 840.15 1177.63 840.15C1178.59 840.15 1179.32 840.44 1179.82 841.02C1180.32 841.6 1180.57 842.46 1180.57 843.6ZM1196.34 843.6V852H1198.74V843.3C1198.74 841.64 1198.31 840.33 1197.45 839.37C1196.61 838.39 1195.46 837.9 1194 837.9C1193.1 837.9 1192.3 838.1 1191.6 838.5C1190.92 838.9 1190.35 839.52 1189.89 840.36V838.2H1187.49V852H1189.89V843.6C1189.89 842.92 1190.03 842.32 1190.31 841.8C1190.61 841.28 1191.02 840.88 1191.54 840.6C1192.08 840.3 1192.7 840.15 1193.4 840.15C1194.36 840.15 1195.09 840.44 1195.59 841.02C1196.09 841.6 1196.34 842.46 1196.34 843.6ZM1203.58 845.7H1215.37C1215.39 845.58 1215.4 845.46 1215.4 845.34C1215.4 845.22 1215.4 845.1 1215.4 844.98C1215.4 843.52 1215.13 842.27 1214.59 841.23C1214.05 840.17 1213.29 839.35 1212.31 838.77C1211.33 838.19 1210.19 837.9 1208.89 837.9C1207.71 837.9 1206.64 838.14 1205.68 838.62C1204.74 839.1 1203.97 839.77 1203.37 840.63C1202.77 841.49 1202.37 842.49 1202.17 843.63C1202.13 843.87 1202.1 844.11 1202.08 844.35C1202.06 844.59 1202.05 844.84 1202.05 845.1C1202.05 846.48 1202.33 847.72 1202.89 848.82C1203.47 849.9 1204.25 850.75 1205.23 851.37C1206.23 851.99 1207.35 852.3 1208.59 852.3C1209.79 852.3 1210.79 852.16 1211.59 851.88C1212.39 851.58 1213.07 851.17 1213.63 850.65C1214.19 850.11 1214.7 849.49 1215.16 848.79L1213.21 847.56C1212.91 848.06 1212.55 848.5 1212.13 848.88C1211.71 849.24 1211.23 849.53 1210.69 849.75C1210.17 849.95 1209.57 850.05 1208.89 850.05C1207.99 850.05 1207.21 849.86 1206.55 849.48C1205.89 849.1 1205.38 848.54 1205.02 847.8C1204.66 847.06 1204.48 846.16 1204.48 845.1L1204.54 844.2C1204.54 843.34 1204.73 842.6 1205.11 841.98C1205.51 841.34 1206.04 840.85 1206.7 840.51C1207.36 840.17 1208.09 840 1208.89 840C1209.69 840 1210.36 840.16 1210.9 840.48C1211.46 840.78 1211.89 841.21 1212.19 841.77C1212.51 842.31 1212.71 842.94 1212.79 843.66H1203.58V845.7ZM1213.69 831.3L1211.44 830.1L1206.94 834.9L1208.29 835.8L1213.69 831.3ZM1224.03 852.3C1225.51 852.3 1226.79 852.01 1227.87 851.43C1228.97 850.83 1229.88 849.95 1230.6 848.79L1228.65 847.56C1228.15 848.4 1227.54 849.03 1226.82 849.45C1226.1 849.85 1225.27 850.05 1224.33 850.05C1223.39 850.05 1222.59 849.85 1221.93 849.45C1221.27 849.05 1220.77 848.47 1220.43 847.71C1220.09 846.95 1219.92 846.03 1219.92 844.95C1219.94 843.89 1220.12 843 1220.46 842.28C1220.82 841.54 1221.32 840.98 1221.96 840.6C1222.62 840.2 1223.41 840 1224.33 840C1225.11 840 1225.79 840.17 1226.37 840.51C1226.95 840.85 1227.4 841.32 1227.72 841.92C1228.06 842.52 1228.23 843.23 1228.23 844.05C1228.23 844.19 1228.2 844.37 1228.14 844.59C1228.08 844.79 1228.02 844.94 1227.96 845.04L1228.92 843.66H1219.02V845.7H1230.81C1230.81 845.66 1230.81 845.57 1230.81 845.43C1230.83 845.27 1230.84 845.12 1230.84 844.98C1230.84 843.52 1230.58 842.26 1230.06 841.2C1229.54 840.14 1228.79 839.33 1227.81 838.77C1226.85 838.19 1225.69 837.9 1224.33 837.9C1222.97 837.9 1221.77 838.2 1220.73 838.8C1219.71 839.4 1218.91 840.24 1218.33 841.32C1217.77 842.4 1217.49 843.66 1217.49 845.1C1217.49 846.52 1217.76 847.77 1218.3 848.85C1218.86 849.93 1219.63 850.78 1220.61 851.4C1221.61 852 1222.75 852.3 1224.03 852.3ZM1241.47 852H1256.29V849.6H1246.72L1253.41 842.79C1254.23 841.95 1254.9 841 1255.42 839.94C1255.94 838.88 1256.2 837.81 1256.2 836.73C1256.2 836.09 1256.07 835.42 1255.81 834.72C1255.55 834.02 1255.15 833.37 1254.61 832.77C1254.07 832.15 1253.38 831.65 1252.54 831.27C1251.7 830.87 1250.7 830.67 1249.54 830.67C1248.1 830.67 1246.86 830.99 1245.82 831.63C1244.8 832.25 1244.02 833.13 1243.48 834.27C1242.94 835.39 1242.67 836.7 1242.67 838.2H1245.22C1245.22 837.14 1245.39 836.23 1245.73 835.47C1246.07 834.69 1246.56 834.1 1247.2 833.7C1247.86 833.28 1248.64 833.07 1249.54 833.07C1250.18 833.07 1250.75 833.18 1251.25 833.4C1251.75 833.62 1252.17 833.91 1252.51 834.27C1252.87 834.63 1253.14 835.03 1253.32 835.47C1253.5 835.91 1253.59 836.36 1253.59 836.82C1253.59 837.38 1253.5 837.92 1253.32 838.44C1253.16 838.94 1252.91 839.44 1252.57 839.94C1252.25 840.42 1251.86 840.91 1251.4 841.41L1241.47 852ZM1261.7 841.5C1261.7 840.28 1261.82 839.16 1262.06 838.14C1262.3 837.1 1262.65 836.21 1263.11 835.47C1263.57 834.71 1264.12 834.13 1264.76 833.73C1265.42 833.31 1266.15 833.1 1266.95 833.1C1267.77 833.1 1268.5 833.31 1269.14 833.73C1269.78 834.13 1270.33 834.71 1270.79 835.47C1271.25 836.21 1271.6 837.1 1271.84 838.14C1272.08 839.16 1272.2 840.28 1272.2 841.5C1272.2 842.72 1272.08 843.85 1271.84 844.89C1271.6 845.91 1271.25 846.8 1270.79 847.56C1270.33 848.3 1269.78 848.88 1269.14 849.3C1268.5 849.7 1267.77 849.9 1266.95 849.9C1266.15 849.9 1265.42 849.7 1264.76 849.3C1264.12 848.88 1263.57 848.3 1263.11 847.56C1262.65 846.8 1262.3 845.91 1262.06 844.89C1261.82 843.85 1261.7 842.72 1261.7 841.5ZM1259.15 841.5C1259.15 843.6 1259.48 845.46 1260.14 847.08C1260.8 848.7 1261.71 849.98 1262.87 850.92C1264.05 851.84 1265.41 852.3 1266.95 852.3C1268.49 852.3 1269.84 851.84 1271 850.92C1272.18 849.98 1273.1 848.7 1273.76 847.08C1274.42 845.46 1274.75 843.6 1274.75 841.5C1274.75 839.4 1274.42 837.54 1273.76 835.92C1273.1 834.3 1272.18 833.03 1271 832.11C1269.84 831.17 1268.49 830.7 1266.95 830.7C1265.41 830.7 1264.05 831.17 1262.87 832.11C1261.71 833.03 1260.8 834.3 1260.14 835.92C1259.48 837.54 1259.15 839.4 1259.15 841.5ZM1276.54 852H1291.36V849.6H1281.79L1288.48 842.79C1289.3 841.95 1289.97 841 1290.49 839.94C1291.01 838.88 1291.27 837.81 1291.27 836.73C1291.27 836.09 1291.14 835.42 1290.88 834.72C1290.62 834.02 1290.22 833.37 1289.68 832.77C1289.14 832.15 1288.45 831.65 1287.61 831.27C1286.77 830.87 1285.77 830.67 1284.61 830.67C1283.17 830.67 1281.93 830.99 1280.89 831.63C1279.87 832.25 1279.09 833.13 1278.55 834.27C1278.01 835.39 1277.74 836.7 1277.74 838.2H1280.29C1280.29 837.14 1280.46 836.23 1280.8 835.47C1281.14 834.69 1281.63 834.1 1282.27 833.7C1282.93 833.28 1283.71 833.07 1284.61 833.07C1285.25 833.07 1285.82 833.18 1286.32 833.4C1286.82 833.62 1287.24 833.91 1287.58 834.27C1287.94 834.63 1288.21 835.03 1288.39 835.47C1288.57 835.91 1288.66 836.36 1288.66 836.82C1288.66 837.38 1288.57 837.92 1288.39 838.44C1288.23 838.94 1287.98 839.44 1287.64 839.94C1287.32 840.42 1286.93 840.91 1286.47 841.41L1276.54 852ZM1300.61 841.65C1301.97 841.65 1303.16 841.41 1304.18 840.93C1305.2 840.45 1306 839.8 1306.58 838.98C1307.16 838.16 1307.45 837.26 1307.45 836.28C1307.45 835.28 1307.21 834.36 1306.73 833.52C1306.27 832.68 1305.6 832 1304.72 831.48C1303.86 830.96 1302.83 830.7 1301.63 830.7C1300.49 830.7 1299.47 830.94 1298.57 831.42C1297.69 831.88 1296.99 832.52 1296.47 833.34C1295.97 834.16 1295.72 835.12 1295.72 836.22H1298.15C1298.15 835.3 1298.49 834.54 1299.17 833.94C1299.85 833.32 1300.68 833.01 1301.66 833.01C1302.36 833.01 1302.94 833.15 1303.4 833.43C1303.88 833.71 1304.24 834.11 1304.48 834.63C1304.72 835.13 1304.84 835.71 1304.84 836.37C1304.84 836.87 1304.74 837.34 1304.54 837.78C1304.36 838.22 1304.09 838.61 1303.73 838.95C1303.37 839.27 1302.93 839.53 1302.41 839.73C1301.89 839.91 1301.29 840 1300.61 840V841.65ZM1301.51 852.3C1302.77 852.3 1303.89 852.06 1304.87 851.58C1305.85 851.1 1306.62 850.42 1307.18 849.54C1307.76 848.66 1308.05 847.63 1308.05 846.45C1308.05 845.41 1307.85 844.52 1307.45 843.78C1307.07 843.04 1306.53 842.44 1305.83 841.98C1305.15 841.5 1304.36 841.15 1303.46 840.93C1302.58 840.71 1301.63 840.6 1300.61 840.6V842.25C1301.29 842.25 1301.92 842.33 1302.5 842.49C1303.08 842.65 1303.59 842.9 1304.03 843.24C1304.47 843.56 1304.81 843.97 1305.05 844.47C1305.31 844.95 1305.44 845.51 1305.44 846.15C1305.44 846.91 1305.28 847.57 1304.96 848.13C1304.64 848.69 1304.18 849.13 1303.58 849.45C1303 849.75 1302.31 849.9 1301.51 849.9C1300.71 849.9 1300 849.75 1299.38 849.45C1298.76 849.15 1298.27 848.74 1297.91 848.22C1297.57 847.7 1297.4 847.11 1297.4 846.45H1294.82C1294.82 847.27 1294.98 848.04 1295.3 848.76C1295.62 849.46 1296.07 850.08 1296.65 850.62C1297.23 851.14 1297.93 851.55 1298.75 851.85C1299.57 852.15 1300.49 852.3 1301.51 852.3ZM1321.39 831L1321.99 846H1323.79L1324.39 831H1321.39ZM1321.24 850.8C1321.24 851.24 1321.4 851.63 1321.72 851.97C1322.06 852.29 1322.45 852.45 1322.89 852.45C1323.35 852.45 1323.74 852.29 1324.06 851.97C1324.38 851.63 1324.54 851.24 1324.54 850.8C1324.54 850.34 1324.38 849.95 1324.06 849.63C1323.74 849.31 1323.35 849.15 1322.89 849.15C1322.45 849.15 1322.06 849.31 1321.72 849.63C1321.4 849.95 1321.24 850.34 1321.24 850.8Z" fill="white"/>
</g>
<defs>
<clipPath id="clip0_417_3">
<rect width="1920" height="1080" fill="white"/>
</clipPath>
</defs>
</svg>
